<?xml version="1.0"?><svg fill="#000000" xmlns="http://www.w3.org/2000/svg"  viewBox="0 0 24 24" width="48px" height="48px">    <path d="M 5 3 C 3.895 3 3 3.895 3 5 L 3 19 C 3 20.105 3.895 21 5 21 L 9.2460938 21 C 9.8940937 21 10.342172 20.395672 10.201172 19.763672 C 10.199172 19.756672 10.199266 19.748187 10.197266 19.742188 C 10.100266 19.301188 9.6912344 19 9.2402344 19 L 5 19 L 5 8 L 19 8 L 19 9.2402344 C 19 9.6912344 19.302188 10.100266 19.742188 10.197266 C 19.749188 10.198266 19.755719 10.199172 19.761719 10.201172 C 20.394719 10.342172 21 9.8940938 21 9.2460938 L 21 5 C 21 3.895 20.105 3 19 3 L 5 3 z M 7.5 11 C 7.224 11 7 11.224 7 11.5 L 7 12.5 C 7 12.776 7.224 13 7.5 13 L 8.5 13 C 8.776 13 9 12.776 9 12.5 L 9 11.5 C 9 11.224 8.776 11 8.5 11 L 7.5 11 z M 11.5 11 C 11.224 11 11 11.224 11 11.5 L 11 12.5 C 11 12.776 11.224 13 11.5 13 L 12.013672 13 C 12.145672 13 12.272188 12.946516 12.367188 12.853516 L 13.367188 11.853516 C 13.682187 11.538516 13.458672 11 13.013672 11 L 11.5 11 z M 18.929688 12.095703 C 18.42093 12.119971 18 12.567141 18 13.103516 L 18 13.105469 C 18 13.590469 18.353125 13.986891 18.828125 14.087891 C 20.933125 14.535891 22.439766 16.650703 21.884766 18.970703 C 21.545766 20.387703 20.397422 21.537859 18.982422 21.880859 C 16.573422 22.463859 14.411406 20.829328 14.066406 18.611328 C 14.032406 18.391328 13.942156 18.184344 13.785156 18.027344 C 13.105156 17.347344 11.917313 17.919141 12.070312 18.869141 C 12.160312 19.431141 12.343578 20.009563 12.642578 20.601562 C 13.549578 22.399562 15.284203 23.722031 17.283203 23.957031 C 20.899203 24.383031 24 21.536 24 18 C 24 15.094 21.905344 12.652328 19.152344 12.111328 C 19.077094 12.096578 19.002367 12.092236 18.929688 12.095703 z M 14.515625 13.515625 C 14.259625 13.515625 14.003594 13.613594 13.808594 13.808594 C 13.418594 14.198594 13.418594 14.832656 13.808594 15.222656 L 17.292969 18.707031 C 17.487969 18.902031 17.744 19 18 19 C 18.256 19 18.512031 18.902031 18.707031 18.707031 C 19.098031 18.316031 19.098031 17.683969 18.707031 17.292969 L 15.222656 13.808594 C 15.027656 13.613594 14.771625 13.515625 14.515625 13.515625 z M 7.5 15 C 7.224 15 7 15.224 7 15.5 L 7 16.5 C 7 16.776 7.224 17 7.5 17 L 8.5 17 C 8.776 17 9 16.776 9 16.5 L 9 15.5 C 9 15.224 8.776 15 8.5 15 L 7.5 15 z"/></svg>