<?xml version="1.0" standalone="no"?>
<!DOCTYPE svg PUBLIC "-//W3C//DTD SVG 20010904//EN"
 "http://www.w3.org/TR/2001/REC-SVG-20010904/DTD/svg10.dtd">
<svg version="1.0" xmlns="http://www.w3.org/2000/svg"
 width="378.000000pt" height="133.000000pt" viewBox="0 0 378.000000 133.000000"
 preserveAspectRatio="xMidYMid meet">

<g transform="translate(0.000000,133.000000) scale(0.100000,-0.100000)"
fill="#000000" stroke="none">
<path d="M120 1320 c0 -5 9 -14 20 -20 11 -6 20 -21 20 -35 0 -26 21 -46 28
-27 2 7 10 12 19 12 19 0 8 38 -18 63 -19 18 -69 24 -69 7z"/>
<path d="M880 1315 c-10 -12 -10 -21 -2 -40 7 -14 15 -25 20 -25 12 0 44 59
37 70 -9 15 -41 12 -55 -5z"/>
<path d="M2205 1320 c3 -5 8 -10 11 -10 2 0 4 5 4 10 0 6 -5 10 -11 10 -5 0
-7 -4 -4 -10z"/>
<path d="M3670 1320 c8 -5 11 -12 7 -16 -3 -4 -12 -2 -19 4 -20 16 -69 -27
-62 -54 4 -17 13 -20 52 -19 43 0 47 2 47 25 0 16 11 31 34 47 l34 23 -54 0
c-37 0 -49 -3 -39 -10z"/>
<path d="M2182 1259 c1 -13 8 -23 13 -21 15 3 12 35 -3 40 -9 3 -13 -3 -10
-19z"/>
<path d="M3131 1210 c-24 -16 -46 -32 -50 -36 -11 -12 63 28 88 47 36 29 12
21 -38 -11z"/>
<path d="M786 1221 c-3 -5 0 -21 8 -35 l13 -26 23 25 23 24 -27 11 c-33 12
-33 12 -40 1z"/>
<path d="M2207 1213 c-12 -11 -8 -23 8 -23 8 0 15 7 15 15 0 16 -12 20 -23 8z"/>
<path d="M3295 1200 c10 -11 13 -20 7 -20 -6 0 -14 5 -17 10 -3 6 -11 10 -16
10 -6 0 8 -21 31 -47 42 -48 92 -136 103 -183 l6 -25 -86 2 c-47 2 -84 1 -82
-1 2 -2 24 -13 49 -25 25 -12 36 -15 26 -6 -17 13 -18 15 -3 15 9 0 24 -14 33
-31 11 -22 18 -28 24 -20 6 10 8 10 12 -1 9 -23 -3 -38 -45 -60 -23 -11 -55
-31 -72 -43 -16 -13 -55 -36 -86 -52 -30 -16 -76 -44 -102 -61 -25 -18 -50
-32 -55 -32 -5 0 -15 -6 -21 -13 -6 -8 -30 -24 -54 -36 -50 -26 -104 -67 -97
-74 3 -3 59 28 125 69 66 40 136 83 155 95 157 95 280 173 304 194 26 23 28
30 22 71 -7 55 -37 125 -65 155 -11 12 -18 26 -15 30 6 10 -74 99 -89 99 -5 0
-2 -9 8 -20z"/>
<path d="M260 1190 c0 -5 5 -10 10 -10 6 0 10 5 10 10 0 6 -4 10 -10 10 -5 0
-10 -4 -10 -10z"/>
<path d="M3607 1194 c-19 -19 8 -94 34 -94 17 0 6 94 -11 98 -9 1 -19 0 -23
-4z"/>
<path d="M622 1148 c-19 -19 -15 -48 8 -48 23 0 70 20 70 31 0 4 -14 12 -31
18 -38 13 -33 13 -47 -1z"/>
<path d="M340 1140 c0 -5 12 -10 26 -10 14 0 23 4 19 10 -3 6 -15 10 -26 10
-10 0 -19 -4 -19 -10z"/>
<path d="M3201 1114 c0 -11 3 -14 6 -6 3 7 2 16 -1 19 -3 4 -6 -2 -5 -13z"/>
<path d="M510 1100 c0 -15 5 -20 18 -18 9 2 17 10 17 18 0 8 -8 16 -17 18 -13
2 -18 -3 -18 -18z"/>
<path d="M1412 1112 c-7 -5 -21 -26 -32 -47 -14 -28 -17 -42 -9 -57 10 -19 32
-22 29 -4 -1 5 3 12 8 15 5 3 17 23 26 45 20 48 11 68 -22 48z"/>
<path d="M3286 1105 c-10 -27 -6 -59 9 -79 8 -11 15 -29 15 -39 0 -18 2 -17
20 5 l20 26 -29 52 c-21 39 -30 47 -35 35z"/>
<path d="M2913 1079 c-29 -17 -53 -33 -53 -36 0 -5 89 44 105 58 16 16 1 9
-52 -22z"/>
<path d="M3210 1082 c0 -7 11 -30 25 -52 14 -22 25 -44 25 -50 0 -5 9 -10 20
-10 11 0 20 5 20 10 0 6 -5 9 -12 8 -6 -2 -27 22 -45 52 -18 30 -33 49 -33 42z"/>
<path d="M1810 1040 c0 -5 5 -10 11 -10 5 0 7 5 4 10 -3 6 -8 10 -11 10 -2 0
-4 -4 -4 -10z"/>
<path d="M2818 1024 c-38 -20 -36 -28 2 -9 17 9 30 18 30 20 0 7 -1 6 -32 -11z"/>
<path d="M3354 985 c-19 -14 -18 -14 4 -15 13 0 22 6 22 15 0 19 -1 19 -26 0z"/>
<path d="M1301 946 c-9 -11 -10 -20 -1 -36 6 -11 8 -25 4 -31 -6 -10 22 -38
39 -39 4 0 7 12 7 27 0 14 7 34 14 42 18 20 9 37 -25 46 -17 4 -30 1 -38 -9z"/>
<path d="M1840 950 c0 -5 5 -10 10 -10 6 0 10 5 10 10 0 6 -4 10 -10 10 -5 0
-10 -4 -10 -10z"/>
<path d="M2570 830 c0 -11 5 -20 10 -20 6 0 10 9 10 20 0 11 -4 20 -10 20 -5
0 -10 -9 -10 -20z"/>
<path d="M1306 778 c-4 -22 -2 -37 9 -47 13 -13 17 -12 40 9 28 26 37 62 10
40 -12 -10 -15 -10 -15 3 0 12 -19 27 -35 27 -1 0 -5 -14 -9 -32z"/>
<path d="M1790 789 c0 -5 5 -7 10 -4 6 3 10 8 10 11 0 2 -4 4 -10 4 -5 0 -10
-5 -10 -11z"/>
<path d="M2834 764 c-18 -14 -18 -15 4 -4 12 6 22 13 22 15 0 8 -5 6 -26 -11z"/>
<path d="M2784 734 c-18 -14 -18 -15 4 -4 12 6 22 13 22 15 0 8 -5 6 -26 -11z"/>
<path d="M2557 715 c-20 -14 -41 -25 -46 -25 -18 0 -12 -15 29 -71 21 -30 49
-71 60 -92 26 -47 41 -53 74 -32 14 10 32 15 39 12 8 -3 20 -1 27 3 8 5 22 3
34 -6 23 -16 50 -19 41 -4 -3 6 -16 10 -28 10 -21 1 -21 1 3 16 14 8 18 13 9
10 -23 -6 -94 57 -84 74 5 8 4 11 -2 7 -6 -4 -15 5 -22 20 -13 28 -12 29 42
59 15 8 27 17 27 20 0 3 -20 -6 -44 -20 l-43 -25 -11 24 c-7 14 -16 26 -22 26
-19 3 -25 4 -36 11 -6 4 -27 -4 -47 -17z m102 -44 c-3 -7 -13 3 -23 21 l-19
33 23 -21 c12 -12 21 -27 19 -33z"/>
<path d="M722 719 c2 -6 8 -10 13 -10 5 0 11 4 13 10 2 6 -4 11 -13 11 -9 0
-15 -5 -13 -11z"/>
<path d="M1375 679 c-10 -15 34 -59 58 -59 17 0 16 4 -10 34 -31 38 -38 42
-48 25z"/>
<path d="M2430 628 c1 -7 7 -30 14 -50 9 -24 10 -40 4 -46 -7 -7 -4 -10 8 -9
13 1 18 -4 17 -17 -2 -28 88 -116 119 -116 24 0 26 3 22 33 -8 52 -24 94 -41
109 -13 10 -17 11 -21 0 -2 -7 -16 6 -31 30 -15 24 -40 51 -54 61 -31 20 -37
21 -37 5z m50 -26 c0 -5 -7 -9 -15 -9 -8 0 -15 4 -15 9 0 4 7 8 15 8 8 0 15
-4 15 -8z m66 -128 c8 3 13 2 10 -3 -3 -5 -15 -11 -27 -14 -11 -3 -18 -3 -15
0 3 3 -5 14 -17 25 l-22 20 28 -17 c16 -9 35 -14 43 -11z"/>
<path d="M735 620 c-3 -5 1 -13 10 -16 22 -9 29 1 11 15 -10 8 -16 9 -21 1z"/>
<path d="M3760 614 c0 -8 5 -12 10 -9 6 3 10 10 10 16 0 5 -4 9 -10 9 -5 0
-10 -7 -10 -16z"/>
<path d="M3715 579 c-4 -6 -5 -12 -2 -15 7 -7 37 7 37 17 0 13 -27 11 -35 -2z"/>
<path d="M796 562 c-3 -6 -1 -14 5 -17 15 -10 25 3 12 16 -7 7 -13 7 -17 1z"/>
<path d="M2373 490 c-29 -17 -53 -33 -53 -36 0 -6 88 42 105 57 16 16 1 9 -52
-21z"/>
<path d="M3640 495 c-7 -8 -19 -15 -26 -15 -8 0 -14 -5 -14 -11 0 -6 6 -8 13
-5 6 3 20 9 30 12 9 4 17 13 17 20 0 18 -5 18 -20 -1z"/>
<path d="M3543 382 c0 -26 -6 -66 -13 -89 -8 -23 -11 -46 -7 -50 14 -13 35 22
55 90 l20 67 -27 15 -28 14 0 -47z"/>
<path d="M3088 393 c7 -3 16 -2 19 1 4 3 -2 6 -13 5 -11 0 -14 -3 -6 -6z"/>
<path d="M3150 380 c-12 -7 -9 -15 18 -41 17 -17 32 -38 32 -45 0 -8 6 -14 14
-14 27 0 26 17 -4 46 -16 16 -30 34 -30 41 0 17 -14 23 -30 13z"/>
<path d="M2083 277 c-4 -6 -8 -19 -8 -29 -1 -13 5 -11 27 10 15 15 28 27 28
27 0 8 -42 0 -47 -8z m27 -1 c0 -2 -7 -7 -16 -10 -8 -3 -12 -2 -9 4 6 10 25
14 25 6z"/>
<path d="M3214 235 c-4 -9 0 -24 10 -33 15 -15 16 -14 16 10 0 32 -17 46 -26
23z"/>
<path d="M1826 221 c-5 -7 -16 -15 -26 -19 -17 -7 -16 -11 14 -60 30 -49 33
-51 51 -37 30 22 40 18 14 -6 l-24 -20 32 17 c26 14 30 20 18 26 -8 5 -12 14
-9 21 7 19 -60 94 -70 78z"/>
<path d="M1976 214 c-20 -19 -20 -24 0 -24 8 0 13 4 9 9 -3 6 3 14 12 20 10 6
13 11 6 11 -6 0 -19 -7 -27 -16z"/>
<path d="M394 210 c-12 -4 -43 -10 -70 -12 -59 -4 -67 -21 -29 -67 22 -26 34
-31 68 -31 38 1 40 2 24 14 -21 16 -15 22 34 31 24 4 39 3 44 -5 4 -6 15 -8
25 -5 10 3 39 -2 64 -10 55 -19 73 -15 111 25 21 22 24 31 14 34 -99 29 -119
31 -119 13 0 -7 -21 -18 -47 -24 -40 -9 -51 -8 -65 5 -10 8 -18 21 -18 29 0
15 -6 15 -36 3z"/>
<path d="M2010 179 c0 -5 5 -7 10 -4 6 3 10 8 10 11 0 2 -4 4 -10 4 -5 0 -10
-5 -10 -11z"/>
<path d="M1973 174 c4 -4 1 -14 -6 -23 -11 -14 -10 -15 8 -1 11 8 21 15 23 16
2 1 -5 5 -15 8 -9 4 -14 4 -10 0z"/>
<path d="M3494 144 c-1 -14 -10 -34 -19 -44 -15 -16 -15 -22 -5 -35 8 -10 9
-15 1 -15 -6 0 -11 -6 -11 -12 0 -23 53 -38 132 -38 74 0 78 1 78 23 0 12 -9
33 -20 47 -11 14 -20 37 -20 51 0 35 -7 39 -40 27 -23 -7 -34 -6 -52 6 -32 22
-43 20 -44 -10z"/>
<path d="M161 149 c-14 -5 -37 -7 -53 -4 -32 7 -32 6 -17 -29 7 -14 21 -26 33
-28 13 -2 20 -10 20 -21 -1 -13 6 -17 31 -17 37 0 42 10 37 72 -4 40 -11 43
-51 27z"/>
<path d="M764 105 c2 -30 10 -51 22 -60 20 -14 37 -10 31 8 -4 12 20 39 49 55
14 8 8 12 -38 26 -31 9 -59 16 -62 16 -3 0 -4 -20 -2 -45z m46 -5 c0 -5 -4
-10 -10 -10 -5 0 -10 5 -10 10 0 6 5 10 10 10 6 0 10 -4 10 -10z"/>
<path d="M1 53 c-1 -45 2 -53 17 -53 17 0 52 29 52 43 0 3 -12 7 -27 9 -19 2
-29 10 -34 28 -5 18 -7 10 -8 -27z"/>
<path d="M1753 83 c-13 -5 -19 -33 -7 -33 3 0 14 5 25 10 34 19 19 38 -18 23z
m27 -7 c0 -2 -7 -7 -16 -10 -8 -3 -12 -2 -9 4 6 10 25 14 25 6z"/>
<path d="M1774 34 c-18 -14 -18 -15 4 -4 12 6 22 13 22 15 0 8 -5 6 -26 -11z"/>
<path d="M1636 12 c-6 -10 30 -9 40 1 4 4 -2 7 -14 7 -11 0 -23 -4 -26 -8z"/>
</g>
</svg>
