<?xml version="1.0" encoding="UTF-8" standalone="no"?>
<svg
   xmlns:dc="http://purl.org/dc/elements/1.1/"
   xmlns:cc="http://creativecommons.org/ns#"
   xmlns:rdf="http://www.w3.org/1999/02/22-rdf-syntax-ns#"
   xmlns:svg="http://www.w3.org/2000/svg"
   xmlns="http://www.w3.org/2000/svg"
   viewBox="0 0 606.66669 317.33334"
   height="317.33334"
   width="606.66669"
   xml:space="preserve"
   id="svg2"
   version="1.1"><metadata
     id="metadata8"><rdf:RDF><cc:Work
         rdf:about=""><dc:format>image/svg+xml</dc:format><dc:type
           rdf:resource="http://purl.org/dc/dcmitype/StillImage" /></cc:Work></rdf:RDF></metadata><defs
     id="defs6" /><g
     transform="matrix(1.3333333,0,0,-1.3333333,0,317.33333)"
     id="g10"><g
       transform="scale(0.1)"
       id="g12"><path
         id="path14"
         style="fill:#68c7de;fill-opacity:1;fill-rule:evenodd;stroke:none"
         d="m 1363.63,1973.71 c -21.83,-9.96 -45.51,-9.22 -71.05,2.23 -34.03,-28.87 -53.28,-46.64 -57.7,-53.32 -19.26,25.54 -31.09,53.47 -35.54,83.83 -4.03,30.35 -5.75,46.83 -5,49.37 7.03,57.77 30.7,87.89 71.05,90.51 39.96,2.62 62.89,1.83 68.83,-2.23 -47.74,-2.22 -77.54,-11.83 -89.38,-28.87 -11.83,-17.03 -16.79,-29.41 -15,-37.18 7.43,4.06 14.85,7.97 22.23,11.64 2.58,11.09 7.38,22.77 14.41,35 13.32,0.35 25.55,0.15 36.64,-0.55 2.23,3.32 31.45,16.25 87.7,38.83 55.86,22.54 126.37,36.64 211.45,42.19 -2.93,2.96 -40.16,3.51 -111.57,1.64 -71.75,-1.84 -158.51,-23.83 -260.27,-66.02 -25.9,-15.58 -38.87,-23.9 -38.87,-25 -7.03,-5.94 -11.09,-13.67 -12.18,-23.32 -4.46,-67.66 2.77,-117.62 21.64,-149.84 18.47,-32.54 29.41,-48.64 32.73,-48.24 23.32,21.44 47.58,36.05 72.73,43.82 25.12,7.78 38.83,11.45 41.06,11.1 -38.13,-21.1 -65.7,-40.9 -82.7,-59.42 11.84,-3.32 24.81,-22.54 38.87,-57.69 -7.03,20.35 -10.78,31.25 -11.13,32.73 5.54,15.9 13.51,28.71 23.87,38.28 10.35,9.3 16.28,13.87 17.77,13.87 -14.45,-24.41 -19.06,-52.89 -13.87,-85.43 5.16,-32.58 9.61,-53.32 13.32,-62.15 6.99,-12.61 15.16,-25.19 24.38,-37.77 -15.9,44.06 -21.45,88.08 -16.64,132.11 4.49,44.02 11.83,80.66 22.22,109.88" /><path
         id="path16"
         style="fill:#68c7de;fill-opacity:1;fill-rule:evenodd;stroke:none"
         d="m 1542.89,1569.69 c 4.45,-0.74 24.26,0.74 59.38,4.41 35.5,3.71 60.7,14.26 75.5,31.68 -5.58,0.31 -19.61,11.6 -42.22,33.79 -22.93,22.23 -19.96,52.58 8.9,91.05 -75.47,-26.99 -112.65,-59.76 -111.56,-98.24 0.74,-38.12 4.06,-59.02 10,-62.69" /><path
         id="path18"
         style="fill:#68c7de;fill-opacity:1;fill-rule:evenodd;stroke:none"
         d="m 1475.2,1959.26 c -8.91,10.78 -19.26,20.9 -31.1,30.54 -48.08,-53.63 -71.76,-103.59 -71.01,-149.84 0.7,-46.64 9.96,-84.18 27.73,-112.66 17.73,-28.86 27.93,-43.67 30.51,-44.41 23.28,18.13 44.02,30.16 62.15,36.09 18.51,5.9 28.12,8.68 28.86,8.32 -31.4,-25.93 -55.31,-49.96 -71.56,-72.14 8.48,-16.64 39.18,-45.16 92.11,-85.47 -23.71,21.09 -39.8,41.4 -48.28,61.05 -8.16,19.61 -11.84,30.12 -11.09,31.6 51.79,48.87 98,75.67 138.75,80.47 -28.52,17.39 -71.61,18.71 -129.3,3.91 -6.29,2.97 -15.94,21.09 -28.91,54.37 -12.93,33.32 7.97,62.54 62.74,87.74 -2.58,5.15 3.71,17.15 18.86,36.05 -35.54,-4.45 -77.69,-20.93 -126.56,-49.41 -2.58,5.55 16.1,33.51 56.1,83.79" /><path
         id="path20"
         style="fill:#68c7de;fill-opacity:1;fill-rule:evenodd;stroke:none"
         d="m 1222.66,2036.99 c 1.48,0.39 5,-2.61 10.54,-8.9 5.2,-5.9 3.32,-17.39 -5.54,-34.38 -4.85,-10.78 -5.55,-21.48 -2.23,-32.23 3.67,-10.7 5.94,-16.44 6.68,-17.18 15.9,15.54 32.73,27.18 50.47,34.96 -18.87,4.41 -26.45,16.83 -22.74,37.19 0.75,1.48 2.23,8.86 4.46,22.22 2.18,12.93 -0.39,22.93 -7.78,29.96 -15.58,-10.04 -26.83,-20.54 -33.86,-31.64" /><path
         id="path22"
         style="fill:#68c7de;fill-opacity:1;fill-rule:evenodd;stroke:none"
         d="m 1808.16,1336.02 c 75.86,-78.83 143.21,-123.4 202.04,-133.75 58.82,-9.97 89.92,-12.74 93.28,-8.32 9.22,14.41 19.02,28.32 29.37,41.6 -29.61,-2.58 -48.28,1.87 -56.05,13.32 -0.35,-0.35 -0.59,-0.55 -0.59,-0.55 -9.57,30 -22.93,56.6 -39.92,79.96 -54.41,16.25 -101.76,36.8 -142.07,61.56 0,0.39 -1.13,2.43 -3.36,6.1 -54.77,-33.28 -82.31,-53.28 -82.7,-59.92" /><path
         id="path24"
         style="fill:#68c7de;fill-opacity:1;fill-rule:evenodd;stroke:none"
         d="m 2266.6,1172.85 c -15.55,-9.26 -30.35,-18.67 -44.37,-28.32 l 44.37,28.32" /><path
         id="path26"
         style="fill:#f5eb14;fill-opacity:1;fill-rule:evenodd;stroke:none"
         d="m 1574.53,1225.04 c 1.84,2.93 22.74,8.87 62.74,17.73 39.57,8.52 86.52,2.58 140.93,-17.73 -4.8,2.93 -17.93,20.9 -39.41,53.79 -21.45,32.97 -23.48,63.32 -6.09,91.05 -3.68,0.74 -24.42,-9.61 -62.15,-31.09 -37.78,-21.45 -69.77,-59.38 -96.02,-113.75" /><path
         id="path28"
         style="fill:#68c7de;fill-opacity:1;fill-rule:evenodd;stroke:none"
         d="m 1880.31,1478.12 c -62.89,-21.87 -134.1,-56.24 -213.67,-103.24 4.1,-5.19 13.91,-12.22 29.41,-21.13 22.93,11.09 35.16,16.48 36.65,16.13 -7.04,-8.16 -10.94,-17.22 -11.68,-27.22 12.96,-5.16 28.9,-10.55 47.73,-16.1 38.87,40.74 77.38,68.64 115.47,83.83 -9.26,18.52 -10.55,41.06 -3.91,67.73" /><path
         id="path30"
         style="fill:#68c7de;fill-opacity:1;fill-rule:evenodd;stroke:none"
         d="m 2600.2,1395.39 c -0.4,-0.74 -12.82,-5.35 -37.23,-13.87 -24.81,-8.51 -59.38,-15.15 -103.79,-19.96 -1.09,-3.01 -14.41,-17.93 -39.92,-44.96 -25.94,-27.03 -58.13,-49.61 -96.56,-67.73 0,-0.35 0,-0.75 0,-1.1 1.44,-1.09 14.21,0.55 38.28,5 24.02,4.07 49.22,18.28 75.47,42.7 -2.97,2.62 9.41,10.19 37.18,22.77 27.39,12.58 86.02,13.71 175.94,3.36 -0.39,0 -4.26,-0.94 -11.68,-2.77 h 0.59 l 28.82,-2.23 c 1.88,2.62 0.2,14.22 -5,34.96 -5.54,21.1 -26.25,35.71 -62.1,43.83" /><path
         id="path32"
         style="fill:#68c7de;fill-opacity:1;fill-rule:evenodd;stroke:none"
         d="m 2222.23,1248.32 c -25.16,-49.96 -40.16,-87.5 -44.96,-112.66 12.22,-3.67 27.18,-0.74 44.96,8.87 0,4.85 12.38,35.94 37.15,93.24 -12.58,1.14 -24.97,4.65 -37.15,10.55" /><path
         id="path34"
         style="fill:#68c7de;fill-opacity:1;fill-rule:evenodd;stroke:none"
         d="m 2667.3,1316.6 68.87,-6.13 c -19.26,6.29 -42.19,8.36 -68.87,6.13" /><path
         id="path36"
         style="fill:#68c7de;fill-opacity:1;fill-rule:evenodd;stroke:none"
         d="m 1116.09,713.281 c 36.64,10.039 73.25,16.84 109.89,20.59 16.68,23.668 31.09,46.399 43.28,68.238 -85.08,-28.828 -129.3,-44.769 -132.62,-47.73 20.7,27.73 40.31,58.82 58.83,93.242 -24.42,-35.902 -45.55,-62.891 -63.24,-81.019 -17.82,-18.512 -27.03,-27.774 -27.78,-27.774 12.93,-15.508 16.84,-24.058 11.64,-25.547" /><path
         id="path38"
         style="fill:#68c7de;fill-opacity:1;fill-rule:evenodd;stroke:none"
         d="m 1228.2,717.191 c -55.5,-14.421 -100.82,-30.511 -135.97,-48.281 -35.16,-17.738 -59.57,-31.84 -73.28,-42.191 12.22,2.582 25,1.832 38.32,-2.231 12.93,-4.058 19.96,-6.636 21.09,-7.769 0,1.133 11.99,8.511 36.05,22.23 24.07,13.711 60.51,27.34 109.38,41.051 4.02,14.449 5.55,26.84 4.41,37.191" /><path
         id="path40"
         style="fill:#68c7de;fill-opacity:1;fill-rule:evenodd;stroke:none"
         d="m 1060.59,717.77 c 30,11.101 44.76,18.128 44.37,21.058 l -44.37,-21.058" /><path
         id="path42"
         style="fill:#68c7de;fill-opacity:1;fill-rule:evenodd;stroke:none"
         d="m 1211.56,836.52 c 29.61,7.39 58.09,13.871 85.47,19.421 25.9,63.278 39.02,112.649 39.42,148.159 0.39,35.16 -0.4,53.13 -2.23,53.87 12.93,57.69 32.34,95.23 58.28,112.65 25.55,17.04 39.77,24.81 42.7,23.33 18.51,17.03 36.64,33.47 54.41,49.37 20.35,34.02 59.02,76.41 115.98,127.07 56.99,50.35 135.43,90.66 235.31,121.02 49.61,22.22 87.34,35.35 113.24,39.41 -146.52,-19.96 -258.59,-55.7 -336.29,-107.11 -77.73,-51.05 -130.66,-99.53 -158.75,-145.39 -28.16,-45.55 -41.44,-69.96 -40,-73.28 -38.83,-5.94 -67.15,-16.64 -84.88,-32.19 -17.77,-15.55 -28.87,-29.76 -33.28,-42.73 -3.75,-11.1 -5.39,-17.03 -5,-17.78 -4.81,-31.05 -11.33,-60.31 -19.42,-87.69 5.9,14.45 8.83,22.03 8.83,22.77 -3.67,-60.311 -16.25,-110.08 -37.73,-149.299 -21.06,-39.57 -33.13,-60.109 -36.06,-61.601" /><path
         id="path44"
         style="fill:#173863;fill-opacity:1;fill-rule:evenodd;stroke:none"
         d="m 1436.33,1636.29 c 0.39,1.48 8.51,11.99 24.41,31.6 16.29,20 37.03,40 62.19,59.96 -1.13,0.35 -10.94,-2.42 -29.45,-8.32 -18.13,-6.29 -38.87,-18.32 -62.15,-36.05 -2.93,0.74 -13.67,16.4 -32.19,47.14 -18.12,30.32 -26.64,69.93 -25.51,118.79 1.49,48.83 30.51,101.18 87.11,157.04 56.25,55.89 157.62,109.53 304.18,160.93 -2.62,-0.31 -27.58,-7.93 -74.92,-22.73 -47.03,-14.42 -100.31,-33.09 -159.88,-56.02 -59.92,-22.61 -110.04,-46.68 -150.43,-72.18 -2.54,-2.23 -10.86,-26.25 -24.96,-72.15 -13.68,-45.51 -17.58,-97.66 -11.61,-156.53 5.9,-58.82 36.96,-109.33 93.21,-151.48" /><path
         id="path46"
         style="fill:#173863;fill-opacity:1;fill-rule:evenodd;stroke:none"
         d="m 1419.1,1875.47 c -2.19,4.45 13.71,29.26 47.74,74.41 33.71,45.47 97.69,85.78 192.07,120.94 -3.36,-0.7 -20.16,-11.25 -50.51,-31.64 -29.96,-20.66 -53.13,-48.09 -69.38,-82.11 1.84,2.19 16.8,5.16 44.96,8.87 28.09,4.1 57.86,-4.61 89.34,-26.1 4.84,1.49 31.6,-1.09 80.47,-7.77 48.83,-6.68 90.47,-25.51 124.88,-56.6 -0.74,2.97 33.48,19.8 102.7,50.51 69.53,30.7 178.51,59.22 326.87,85.47 -4.06,0 -37.38,-8.33 -99.88,-25 -62.19,-17 -128.4,-43.09 -198.75,-78.21 -69.88,-34.8 -118.56,-79.37 -145.94,-133.75 -1.13,0.31 -5.7,4.96 -13.87,13.87 -8.51,8.87 -14.6,19.02 -18.28,30.51 4.42,5.54 2.19,21.64 -6.68,48.28 -8.51,26.64 -50.7,30.9 -126.52,12.77 0,2.23 -10.04,10.35 -30,24.42 -20.35,14.06 -51.05,21.64 -92.11,22.77 -41.44,1.48 -93.83,-15.74 -157.11,-51.64" /><path
         id="path48"
         style="fill:#173863;fill-opacity:1;fill-rule:evenodd;stroke:none"
         d="m 1483.52,1662.93 c -0.75,-1.48 3.16,-12.23 11.64,-32.19 8.16,-19.65 24.02,-39.96 47.73,-61.05 -2.23,1.48 -5.74,13.86 -10.55,37.15 -4.84,23.32 3.17,48.47 23.87,75.5 21.09,27 68.83,47 143.17,59.93 -2.19,3.71 -24.81,4.45 -67.66,2.26 -42.58,-2.26 -91.99,-29.45 -148.2,-81.6" /><path
         id="path50"
         style="fill:#68c7de;fill-opacity:1;fill-rule:evenodd;stroke:none"
         d="m 1912.5,1792.23 c -0.74,2.57 15.74,16.64 49.41,42.18 33.68,25.51 88.25,47.89 163.75,67.15 -4.8,-2.22 -27.57,-17.03 -68.28,-44.41 -40.35,-27.74 -69.57,-55.31 -87.69,-82.66 2.61,-1.87 16.09,-19.84 40.51,-53.87 24.41,-34.02 46.25,-73.78 65.5,-119.33 l 140.39,-46.06 c -4.41,2.97 -29.21,2.97 -74.33,0 l 80.47,-41.05 -75.51,18.87 c 0,1.09 -7.58,8.16 -22.74,21.09 -15.19,12.93 -37.38,24.96 -66.6,36.06 0.39,2.22 -7.03,20.74 -22.22,55.5 -15.16,34.42 -38.83,71.06 -71.02,109.92 5.9,-5.93 13.87,-29.45 23.87,-70.5 -0.74,2.58 -8.17,16.64 -22.23,42.18 -13.71,25.9 -31.4,47.5 -53.28,64.93" /><path
         id="path52"
         style="fill:#173863;fill-opacity:1;fill-rule:evenodd;stroke:none"
         d="m 1944.14,1695.08 c 1.13,0 12.58,-9.96 34.45,-29.96 21.45,-20.32 45.47,-51.76 72.15,-94.34 1.45,-0.74 17.74,-9.41 48.83,-26.05 31.05,-17.07 67.5,-37.23 109.34,-60.55 -1.88,0.74 -11.68,4.06 -29.46,10.04 -17.73,5.86 -33.12,10.12 -46.01,12.73 1.44,-0.74 9.06,-6.48 22.73,-17.22 13.67,-10.71 24.61,-21.25 32.74,-31.61 -1.45,1.49 -12.58,7.93 -33.29,19.42 -21.13,11.44 -44.21,20.16 -69.37,26.05 6.29,-5.15 9.41,-20.31 9.41,-45.47 0.39,1.1 -2.57,9.61 -8.86,25.55 -6.29,15.51 -18.32,30.86 -36.06,46.06 0,2.57 -8.9,21.44 -26.68,56.6 -18.12,35.12 -44.72,71.4 -79.92,108.75" /><path
         id="path54"
         style="fill:#f5eb14;fill-opacity:1;fill-rule:evenodd;stroke:none"
         d="m 1526.8,1823.28 c 2.58,3.75 20.35,12.58 53.28,26.68 32.93,14.42 66.4,10.9 100.47,-10.58 1.44,1.52 13.67,2.42 36.64,2.77 22.93,0.39 48.98,-9.57 78.24,-29.96 1.48,2.61 -4.06,12.22 -16.64,28.9 -12.97,16.64 -42.38,24.22 -88.28,22.74 -1.1,4.45 -16.99,10 -47.7,16.68 -30.35,6.25 -69.02,-12.81 -116.01,-57.23" /><path
         id="path56"
         style="fill:#173863;fill-opacity:1;fill-rule:evenodd;stroke:none"
         d="m 1996.88,1534.69 c -3.33,2.97 -41.61,2.22 -114.89,-2.19 -73.24,-4.84 -160.97,-29.61 -263.08,-74.38 -102.5,-45.11 -199.22,-126.91 -290.24,-245.31 -2.22,0 -9.65,-8.32 -22.19,-25 -12.57,-16.64 -16.32,-41.79 -11.13,-75.47 -1.83,2.97 4.61,16.64 19.45,41.1 14.42,24.02 49.22,41.25 104.3,51.6 -1.8,3.32 12.42,29.06 42.78,77.15 30.35,48.12 87.3,98.4 170.89,150.97 83.68,52.15 205.04,86.02 364.11,101.53" /><path
         id="path58"
         style="fill:#f5eb14;fill-opacity:1;fill-rule:evenodd;stroke:none"
         d="m 1316.45,900.352 c 0.74,3.668 37.03,20.738 108.78,51.019 72.15,30.348 174.11,51.089 305.82,62.179 -0.39,1.88 -30.7,2.62 -91.01,2.23 -59.96,-0.74 -146.02,-14.06 -258.09,-39.96 1.84,1.09 9.57,14.258 23.28,39.38 13.32,24.8 20.9,54.25 22.78,88.28 1.13,2.57 25.9,15.35 74.37,38.28 48.87,22.58 114.5,39.41 197,50.54 -1.8,2.19 -32.15,1.65 -90.98,-1.71 -58.48,-3.68 -133.4,-22.93 -224.81,-57.7 3.36,-1.48 4.46,-23.87 3.36,-67.15 -1.13,-43.28 -24.65,-98.439 -70.5,-165.388" /><path
         id="path60"
         style="fill:#173863;fill-opacity:1;fill-rule:evenodd;stroke:none"
         d="m 1006.21,616.719 c 0.39,4.101 31.25,22.383 92.7,54.961 61.4,32.539 151.32,54.57 269.68,66.019 -3.28,1.129 -31.25,1.129 -83.75,0 -52.57,-0.75 -108.79,-8.828 -168.75,-24.418 5.2,1.489 1.29,10.039 -11.64,25.547 0.75,-2.93 -13.12,-9.808 -41.6,-20.547 -28.51,-11.09 -75.35,-9.41 -140.471,5.039 -1.789,0.352 -6.289,-3.011 -13.32,-10.039 -7.379,-6.601 -4.957,-18.441 7.23,-35.511 0,-1.442 7.813,-9.45 23.32,-23.821 15.512,-14.461 37.731,-26.84 66.601,-37.23" /><path
         id="path62"
         style="fill:#f8971c;fill-opacity:1;fill-rule:evenodd;stroke:none"
         d="m 1078.36,616.719 c 0,4.453 30.9,20 92.69,46.64 62.15,26.993 155.94,39.411 281.37,37.192 -2.22,0 -20.51,-4.071 -54.96,-12.231 -34.41,-8.16 -72.54,-20.16 -114.34,-36.05 -42.18,-15.942 -75.46,-35.942 -99.88,-59.93 0.39,-1.481 -7.58,-2.219 -23.86,-2.219 -16.65,0.348 -43.64,9.219 -81.02,26.598" /><path
         id="path64"
         style="fill:#173863;fill-opacity:1;fill-rule:evenodd;stroke:none"
         d="m 1137.19,754.379 c 6.29,5.543 71.21,27.73 194.8,66.601 123.6,38.469 269.18,60.5 436.76,66.051 -1.05,3.321 -49.77,5.899 -145.94,7.77 -96.21,1.84 -233.28,-17.61 -411.25,-58.281 2.93,1.492 15,21.8 36.06,61.058 21.48,39.184 34.06,88.981 37.73,149.302 -1.09,-5.55 -15.9,-41.45 -44.41,-107.661 -28.48,-65.899 -63.09,-127.5 -103.75,-184.84" /><path
         id="path66"
         style="fill:#173863;fill-opacity:1;fill-rule:evenodd;stroke:none"
         d="m 1768.75,1327.15 c 1.13,-6.68 36.84,-37.74 107.15,-93.24 70.31,-55.16 169.06,-95.47 296.37,-121.02 -4.46,5.2 10.93,48.13 46.05,128.79 35.16,80.62 115.47,165.94 240.86,255.86 -5.9,1.09 -47.34,-22.42 -124.3,-70.51 -77.34,-47.73 -154.45,-125.43 -231.4,-233.08 -3.36,-4.42 -34.46,-1.49 -93.28,8.86 -58.83,10 -126.18,54.38 -202.04,133.21 0,4.41 20.59,20.74 61.64,48.82 41.45,28.17 102.27,42.78 182.58,43.83 -3.67,4.85 -34.61,5.78 -92.69,2.78 -58.48,-2.54 -122.11,-37.31 -190.94,-104.3" /><path
         id="path68"
         style="fill:#f8971c;fill-opacity:1;fill-rule:evenodd;stroke:none"
         d="m 1468.52,1208.95 c -0.75,3.28 16.44,28.67 51.64,76.01 35.11,46.99 91.56,94.88 169.25,143.71 77.7,48.87 180.2,77.54 307.47,86.06 -2.93,0.39 -34.42,-9.07 -94.34,-28.28 -59.92,-19.65 -130.63,-51.84 -212.03,-96.61 -81.02,-45.15 -155,-105.46 -221.99,-180.89" /><path
         id="path70"
         style="fill:#f8971c;fill-opacity:1;fill-rule:evenodd;stroke:none"
         d="m 1985.23,1387.62 c 2.58,-1.1 15,-14.96 37.19,-41.6 22.54,-26.29 40.51,-58.87 53.79,-97.7 0.74,2.23 14.1,20.55 40,54.96 26.29,34.38 61.21,71.21 104.88,110.43 43.68,39.22 92.31,67.19 145.98,83.83 -4.8,0.35 -38.48,-12.07 -101.02,-37.19 -62.53,-25.55 -125.78,-66.99 -189.84,-124.33 -5.9,4.1 -36.25,21.25 -90.98,51.6" /><path
         id="path72"
         style="fill:#173863;fill-opacity:1;fill-rule:evenodd;stroke:none"
         d="m 2222.23,1144.53 c 0,2.23 7.34,22.23 22.18,59.96 14.81,38.09 37,80.47 66.61,127.07 29.96,46.99 67.34,85.28 112.07,114.89 -2.93,-1.45 -16.8,-20.9 -41.61,-58.25 -25.15,-36.99 -44.76,-83.67 -58.78,-139.88 1.44,-1.48 14.21,0 38.28,4.45 24.02,4.42 49.22,18.68 75.47,42.7 -2.97,3.01 9.41,10.78 37.18,23.36 27.39,12.54 86.02,13.47 175.94,2.77 -2.23,0 -27.42,-7.03 -75.51,-21.09 -48.08,-13.71 -105.04,-33.87 -170.9,-60.51 -65.5,-26.25 -125.82,-58.09 -180.93,-95.47" /><path
         id="path74"
         style="fill:#173863;fill-opacity:1;fill-rule:evenodd;stroke:none"
         d="m 2667.3,1317.15 c 1.88,2.58 0,14.22 -5.54,34.96 -5.16,20.74 -25.71,35.35 -61.56,43.83 -5.55,4.8 10.35,24.41 47.69,58.86 37.03,34.77 128.2,54.73 273.63,59.93 -5.93,0.7 -37.22,-5.9 -93.79,-19.96 -56.64,-13.72 -102.89,-39.97 -138.75,-78.83 0,-1.14 5.71,-7.19 17.19,-18.28 11.49,-11.14 27.54,-19.46 48.28,-25 2.97,1.48 16.49,-4.65 40.51,-18.32 24.06,-13.72 40.55,-43.68 49.42,-89.89 2.96,1.06 29.8,6.06 80.46,14.96 50.32,8.87 107.66,14.26 172.07,16.06 -2.26,0 -20.74,-2.54 -55.5,-7.74 -35.16,-4.8 -73.44,-12.57 -114.89,-23.28 -41.48,-10.39 -73.08,-23.51 -94.92,-39.41 0.74,4.8 -11.09,21.64 -35.51,50.51 -24.41,28.83 -67.34,42.69 -128.79,41.6" /><path
         id="path76"
         style="fill:#f8971c;fill-opacity:1;fill-rule:evenodd;stroke:none"
         d="m 1586.76,1979.26 c 1.79,0.74 11.25,0.74 28.28,0 16.68,-1.14 30.31,-6.84 41.09,-17.23 -1.13,6.29 72.5,28.17 220.86,65.55 148.36,36.95 376.49,53.04 684.34,48.24 -6.29,2.23 -68.28,7.77 -185.94,16.64 -117.27,8.91 -251.41,7.42 -402.34,-4.41 -150.98,-12.23 -279.77,-48.48 -386.29,-108.79" /><path
         id="path78"
         style="fill:#f8971c;fill-opacity:1;fill-rule:evenodd;stroke:none"
         d="m 2560.2,1428.16 c -1.84,2.54 22.92,19.61 74.37,51.02 51.41,31.48 141.17,62.19 269.18,92.15 128.05,29.61 305.98,43.12 533.91,40.51 -6.68,3 -68.64,7.57 -185.9,13.86 -117.31,6.29 -250.51,-3.67 -399.61,-29.96 -149.1,-26.29 -274.38,-86.91 -375.74,-182.03 1.44,1.09 11.09,4.45 28.86,10 18.13,5.55 36.41,6.99 54.93,4.45" /><path
         id="path80"
         style="fill:#f8971c;fill-opacity:1;fill-rule:evenodd;stroke:none"
         d="m 1468.52,1071.29 c 0.39,4.06 -5,-17.23 -16.1,-63.83 -1.48,2.58 41.8,11.49 129.85,26.64 88.08,15.16 230.89,21.64 428.47,19.45 197.93,-1.87 460.51,-27.22 787.54,-76.05 -5.16,2.578 -75.47,16.801 -210.9,42.73 -135.39,25.9 -304.1,47.19 -506.13,63.83 -202.38,16.64 -406.68,12.35 -612.73,-12.77" /><path
         id="path82"
         style="fill:#f8971c;fill-opacity:1;fill-rule:evenodd;stroke:none"
         d="m 1368.59,801.52 -21.05,-47.141 c 3.32,2.223 56.8,12.922 160.39,32.18 103.63,19.261 237.89,33.48 402.93,42.742 165.35,9.25 342.23,0 530.59,-27.781 -4.07,2.269 -59.57,11.839 -166.49,28.91 -107.34,17.031 -242.58,26.601 -405.74,28.871 -162.81,2.539 -329.65,-16.641 -500.63,-57.781" /><path
         id="path84"
         style="fill:#eb2123;fill-opacity:1;fill-rule:evenodd;stroke:none"
         d="m 1272.62,1605.2 c 0.74,-2.93 27.58,-13.13 80.47,-30.51 52.89,-17.39 128.79,-23.32 227.53,-17.78 98.79,5.2 217.19,40.12 355.2,104.89 l 24.41,-35.51 c -5.15,-4.84 -52.53,-27.58 -142.07,-68.28 -89.14,-40.71 -188.47,-70.67 -298,-89.92 -109.54,-19.57 -197.04,0.19 -262.54,59.41 l 15,77.7" /><path
         id="path86"
         style="fill:#eb2123;fill-opacity:1;fill-rule:evenodd;stroke:none"
         d="m 2044.06,1708.44 23.32,-32.78 c 4.81,4.07 57.89,32.23 159.26,84.38 101.02,52.15 220.7,103.24 359.1,153.2 138.36,49.92 266.02,73.95 382.97,72.15 -0.74,2.58 -37.58,3.52 -110.47,2.77 -72.89,-0.74 -178.16,-20.39 -315.82,-58.86 -137.62,-38.09 -303.71,-111.72 -498.36,-220.86" /><path
         id="path88"
         style="fill:#68c7de;fill-opacity:1;fill-rule:evenodd;stroke:none"
         d="m 1333.67,2061.95 c -1.13,-1.09 -1.48,-6.87 -1.13,-17.22 0.39,-10.71 9.06,-20.16 26.09,-28.28 -1.87,2.22 5.94,17.03 23.32,44.41 17,27.03 53.99,51.99 111.02,74.92 -3.01,0 -22.23,-5.94 -57.77,-17.77 -35.51,-11.84 -69.38,-30.51 -101.53,-56.06" /><path
         id="path90"
         style="fill:#f5eb14;fill-opacity:1;fill-rule:evenodd;stroke:none"
         d="m 2076.21,1661.8 c 4.49,-6.64 12.62,-21.49 24.45,-44.42 1.84,1.14 23.48,-5.15 64.93,-18.86 41.44,-13.32 93.04,-39.42 154.84,-78.25 4.8,1.84 31.84,3.52 81.05,5 49.18,1.49 91.72,-7.77 127.62,-27.73 -1.05,5.16 28.32,27.73 88.24,67.69 59.96,39.57 157.11,66.02 291.37,79.38 -4.8,-0.39 -41.8,-0.2 -110.98,0.51 -68.82,0.74 -140.39,4.1 -214.76,10.04 -74.38,5.54 -122.11,15.5 -143.2,29.96 -20.71,14.06 14.61,34.61 106.01,61.6 -4.45,-1.13 -27.19,-2.93 -68.28,-5.55 -41.45,-2.62 -75.31,-0.39 -101.56,6.64 -26.25,7.42 -19.46,25.71 20.54,54.96 -2.61,0.35 -34.41,-10.35 -95.46,-32.18 -61.41,-21.84 -136.33,-58.13 -224.81,-108.79" /><path
         id="path92"
         style="fill:#f5eb14;fill-opacity:1;fill-rule:evenodd;stroke:none"
         d="m 1677.77,1955.43 c 5.55,1.45 34.03,-0.23 85.43,-5.04 51.1,-4.8 91.02,-21.09 119.89,-48.83 -1.84,4.42 15.93,24.42 53.32,59.92 36.99,35.9 104.29,60.71 201.99,74.42 -5.55,1.09 -54.77,-3.52 -147.62,-13.87 -92.89,-10.39 -197.23,-32.58 -313.01,-66.6" /><path
         id="path94"
         style="fill:#f5eb14;fill-opacity:1;fill-rule:evenodd;stroke:none"
         d="m 2044.06,1740.04 c -1.13,1.13 -7.18,6.29 -18.32,15.58 -11.09,9.58 -20.7,15.9 -28.86,18.87 1.13,3.32 20.89,19.42 59.41,48.24 38.12,28.48 87.11,50.71 147.07,66.61 -3.36,-1.1 -17.77,-9.07 -43.32,-23.87 -25.9,-14.42 -42.93,-28.63 -51.02,-42.74 -8.16,-14.06 12.35,-20.66 61.57,-19.96 -4.81,-1.48 -24.42,-9.61 -58.79,-24.45 -34.85,-14.77 -57.39,-27.5 -67.74,-38.28" /><path
         id="path96"
         style="fill:#f5eb14;fill-opacity:1;fill-rule:evenodd;stroke:none"
         d="m 1542.34,2119.65 c 1.84,1.52 18.13,8.32 48.83,20.55 30.35,12.57 64.38,20.58 102.11,23.86 -2.23,0 -14.8,0.55 -37.73,1.68 -22.93,1.1 -43.28,3.52 -61.06,7.19 -18.12,3.36 -20.54,8.36 -7.19,15.04 -2.26,1.44 -10.19,-0.98 -23.9,-7.27 -14.02,-6.29 -21.06,-26.6 -21.06,-61.05" /><path
         id="path98"
         style="fill:#f5eb14;fill-opacity:1;fill-rule:evenodd;stroke:none"
         d="m 2747.77,1426.48 c 6.68,1.45 30,-5.15 69.96,-20 40.32,-15.11 57.35,-48.98 51.06,-101.56 0.35,2.62 27.38,9.06 81.05,19.46 53.64,10.7 132.46,10.7 236.37,0 -3.28,0.39 -24.96,6.83 -64.88,19.41 -40,12.58 -78.44,27.93 -115.47,46.05 -37.34,18.52 -53.24,36.8 -47.7,54.96 5.16,18.13 51.61,33.09 139.26,44.93 -4.8,3.75 -43.28,5.39 -115.43,5.04 -72.15,0 -150.23,-22.78 -234.22,-68.29" /><path
         id="path100"
         style="fill:#68c7de;fill-opacity:1;fill-rule:evenodd;stroke:none"
         d="m 1911.99,1675.66 c -2.26,0.75 -9.65,7.97 -22.22,21.68 -12.23,13.68 -15.55,30.12 -10,49.38 -1.1,-0.74 -7.04,1.48 -17.74,6.64 -11.09,4.8 -21.13,15.39 -30,31.64 -0.74,-2.58 -13.87,-6.45 -39.37,-11.64 -25.55,-5.16 -58.83,4.61 -99.89,29.41 0,-1.83 -7.07,-4.06 -21.13,-6.68 -14.06,-2.93 -34.96,3.17 -62.69,18.32 -3.36,-2.22 -2.23,-10.35 3.32,-24.41 5.89,-14.06 37.18,-21.45 93.78,-22.19 0.75,-1.48 12.19,-6.64 34.42,-15.54 21.83,-9.26 49.92,-11.65 84.37,-7.23 -1.13,-1.09 3.17,-10.55 12.74,-28.28 9.3,-17.78 29.26,-36.06 59.96,-54.96 l 14.45,13.86" /><path
         id="path102"
         style="fill:#173863;fill-opacity:1;fill-rule:evenodd;stroke:none"
         d="m 1179.38,2092.46 c -3.33,-1.8 -5.55,-25.7 -6.68,-71.56 -1.14,-45.9 19.6,-102.11 62.18,-168.71 -0.74,1.05 7.19,11.64 23.83,31.6 16.68,20 46.29,41.83 88.83,65.51 -2.23,0.35 -15.94,-3.32 -41.06,-11.1 -25.15,-7.77 -49.41,-22.38 -72.73,-43.82 -3.32,-0.4 -14.26,15.5 -32.73,47.69 -18.87,32.54 -26.1,82.73 -21.64,150.39" /><path
         id="path104"
         style="fill:#173863;fill-opacity:1;fill-rule:evenodd;stroke:none"
         d="m 1329.22,1995.35 c -1.84,0.39 -13.36,-3.12 -34.42,-10.55 -21.05,-7.77 -41.79,-21.28 -62.18,-40.5 -1.06,0.74 -3.28,6.48 -6.64,17.18 -3.71,10.75 -2.93,21.45 2.22,32.23 8.91,16.64 10.55,28.09 5,34.38 -5.54,6.29 -9.06,9.29 -10.54,8.9 31.44,38.48 121.72,81.92 270.82,130.39 -3.28,0.74 -32,-5.54 -86.02,-18.83 -53.98,-13.32 -113.2,-36.83 -177.62,-70.5 -1.79,7.77 3.17,20.15 15,37.18 11.84,17.04 41.64,26.65 89.38,28.87 -5.94,4.06 -28.87,4.85 -68.83,2.23 -40.35,-2.62 -64.02,-32.58 -71.05,-89.92 -0.75,-2.97 0.97,-19.61 5,-49.96 4.45,-30.36 16.28,-58.29 35.54,-83.83 1.49,2.26 12.19,12.97 32.19,32.22 19.96,19.26 40.7,32.74 62.15,40.51" /><path
         id="path106"
         style="fill:#173863;fill-opacity:1;fill-rule:evenodd;stroke:none"
         d="m 1292.58,1864.92 c 0.35,-1.83 4.26,-13.87 11.68,-36.05 7.77,-21.84 17.58,-42.23 29.41,-61.06 -2.22,3.32 -6.48,22.35 -12.77,57.19 -6.29,34.77 -2.03,65.47 12.77,92.07 -1.13,-0.35 -6.87,-5.16 -17.22,-14.37 -10.71,-9.3 -18.72,-21.88 -23.87,-37.78" /><path
         id="path108"
         style="fill:#002a46;fill-opacity:1;fill-rule:nonzero;stroke:none"
         d="m 2137.62,2349.61 c 0,8.63 2.54,15.82 7.65,21.56 5.2,5.82 12.89,8.75 23.13,8.75 10.31,0 18.12,-2.93 23.44,-8.75 5.39,-5.74 8.12,-12.93 8.12,-21.56 0,-8.36 -2.73,-15.31 -8.12,-20.94 -5.32,-5.51 -13.13,-8.28 -23.44,-8.28 -10.24,0 -17.93,2.77 -23.13,8.28 -5.11,5.63 -7.65,12.58 -7.65,20.94 z" /><path
         id="path110"
         style="fill:#002a46;fill-opacity:1;fill-rule:nonzero;stroke:none"
         d="M 358.121,85.4297 346.09,70.1211 C 311.172,29.3789 260.078,9.01953 192.809,9.01953 133.121,9.01953 86.25,28.7891 52.1914,68.3984 18.1211,107.969 0.699219,163.949 0,236.371 v 108.43 c 0,77.39 15.4688,135.359 46.4102,173.91 31.0117,38.629 77.4178,57.969 139.2108,57.969 52.578,0 93.758,-14.692 123.438,-44.059 29.691,-29.301 46.019,-71.101 49.062,-125.473 H 288.75 c -2.809,34.372 -12.422,61.172 -28.75,80.473 -16.25,19.367 -40.941,29.059 -74.059,29.059 -39.691,0 -68.832,-12.969 -87.3512,-38.91 -18.4296,-25.86 -28.039,-67.258 -28.75,-124.219 V 240.898 c 0,-55.628 10.629,-98.359 31.8792,-128.128 21.25,-29.6802 51.722,-44.5317 91.402,-44.5317 37.391,0 65.828,9.1015 85.32,27.3515 l 10.309,9.5312 v 127.5 H 187.809 V 291.68 H 358.121 Z M 609.648,9.01953 c -51.058,0 -90.269,15.24217 -117.66,45.78127 C 464.691,85.3086 450.781,130 450.27,188.871 v 49.84 c 0,61.129 13.32,109.098 40,143.91 26.761,34.758 64.07,52.18 111.878,52.18 48.012,0 83.903,-15.313 107.653,-45.93 23.828,-30.633 35.98,-78.281 36.41,-142.973 V 201.84 H 517.148 v -9.539 c 0,-43.981 8.282,-75.93 24.84,-95.9299 16.563,-20 40.391,-30 71.563,-30 19.687,0 37.039,3.668 52.039,11.0898 15.07,7.5 29.211,19.3789 42.34,35.6291 l 35,-42.5002 C 713.75,29.5313 669.34,9.01953 609.648,9.01953 Z m -7.5,368.12847 c -27.808,0 -48.437,-9.609 -61.878,-28.75 -13.43,-19.058 -21.051,-48.707 -22.809,-88.91 H 679.18 v 9.063 c -1.801,38.949 -8.828,66.758 -21.09,83.437 -12.309,16.762 -30.942,25.16 -55.942,25.16 z" /><path
         id="path112"
         style="fill:#002a46;fill-opacity:1;fill-rule:nonzero;stroke:none"
         d="m 915.121,526.68 v -99.532 h 61.867 V 372.93 H 915.121 V 118.398 c 0,-16.25 2.649,-28.5582 7.969,-36.8785 5.308,-8.3593 14.41,-12.5 27.34,-12.5 8.832,0 17.808,1.4922 26.871,4.5313 L 976.52,16.6797 c -15.11,-5.0781 -30.622,-7.66017 -46.559,-7.66017 -26.563,0 -46.84,9.46097 -60.781,28.44137 -13.871,19.0586 -20.782,45.8594 -20.782,80.4691 v 255 h -62.66 v 54.218 h 62.66 v 99.532 z" /><path
         id="path114"
         style="fill:#002a46;fill-opacity:1;fill-rule:nonzero;stroke:none"
         d="m 1401.05,123.238 126.41,445.782 h 76.25 L 1431.84,16.6797 h -60.63 L 1199.65,569.02 h 75.94 z" /><path
         id="path116"
         style="fill:#002a46;fill-opacity:1;fill-rule:nonzero;stroke:none"
         d="m 1863.98,16.6797 c -4.06,8.832 -6.99,23.7891 -8.75,44.8398 -23.75,-35 -54.14,-52.49997 -91.09,-52.49997 -37.19,0 -66.21,10.39067 -87.03,31.24997 -20.86,20.9414 -31.25,50.3516 -31.25,88.2815 0,41.758 14.14,74.89 42.5,99.379 28.32,24.57 67.11,37.109 116.41,37.66 h 49.37 v 43.59 c 0,24.57 -5.47,42.031 -16.41,52.34 -10.85,10.39 -27.42,15.628 -49.68,15.628 -20.24,0 -36.68,-6.058 -49.38,-18.128 -12.62,-11.989 -18.9,-27.18 -18.9,-45.622 h -67.04 c 0,20.942 6.14,40.942 18.44,60 12.38,19.141 29.1,34.141 50.16,45 21.01,10.942 44.41,16.403 70.15,16.403 41.96,0 73.91,-10.461 95.79,-31.403 21.87,-20.859 33.04,-51.207 33.59,-91.097 v -207.18 c 0.31,-31.6796 4.61,-59.1405 12.97,-82.3515 v -6.0898 z m -89.53,53.4414 c 16.45,0 32.11,4.5273 47.03,13.5898 14.89,9.1407 25.79,20.5511 32.66,34.2191 v 97.968 h -37.97 c -31.87,-0.546 -57.03,-7.738 -75.47,-21.558 -18.43,-13.75 -27.65,-33.051 -27.65,-57.82 0,-23.239 4.61,-40.1098 13.9,-50.6216 9.38,-10.5468 25.2,-15.7773 47.5,-15.7773 z" /><path
         id="path118"
         style="fill:#002a46;fill-opacity:1;fill-rule:nonzero;stroke:none"
         d="m 2167.19,66.3711 c 22.19,0 40,6.8672 53.43,20.6172 13.44,13.8317 20.79,33.5237 22.04,59.0627 h 63.28 c -1.49,-39.492 -15.43,-72.1799 -41.88,-98.1213 -26.48,-25.9414 -58.75,-38.91017 -96.87,-38.91017 -50.94,0 -89.77,15.98047 -116.41,47.96877 -26.68,32.0703 -40,79.7307 -40,142.9727 v 45.16 c 0,61.949 13.28,109.059 39.84,141.25 26.57,32.258 65.24,48.43 116.1,48.43 41.95,0 75.31,-13.281 100,-39.84 24.69,-26.563 37.73,-62.891 39.22,-108.91 h -63.28 c -1.57,30.32 -8.87,53.051 -21.88,68.289 -13.05,15.191 -31.05,22.808 -54.06,22.808 -29.81,0 -51.95,-9.847 -66.41,-29.527 -14.37,-19.609 -21.83,-51.723 -22.34,-96.41 v -52.34 c 0,-48.359 7.11,-82.5 21.41,-102.4999 14.25,-20 36.87,-30 67.81,-30 z" /><path
         id="path120"
         style="fill:#002a46;fill-opacity:1;fill-rule:nonzero;stroke:none"
         d="m 2526.84,66.3711 c 22.18,0 40,6.8672 53.43,20.6172 13.44,13.8317 20.78,33.5237 22.03,59.0627 h 63.29 c -1.49,-39.492 -15.43,-72.1799 -41.88,-98.1213 -26.48,-25.9414 -58.75,-38.91017 -96.87,-38.91017 -50.94,0 -89.77,15.98047 -116.41,47.96877 -26.68,32.0703 -40,79.7307 -40,142.9727 v 45.16 c 0,61.949 13.28,109.059 39.84,141.25 26.57,32.258 65.24,48.43 116.1,48.43 41.95,0 75.31,-13.281 100,-39.84 24.68,-26.563 37.73,-62.891 39.22,-108.91 h -63.29 c -1.56,30.32 -8.86,53.051 -21.87,68.289 -13.05,15.191 -31.05,22.808 -54.06,22.808 -29.81,0 -51.96,-9.847 -66.41,-29.527 -14.37,-19.609 -21.84,-51.723 -22.34,-96.41 v -52.34 c 0,-48.359 7.11,-82.5 21.4,-102.4999 14.26,-20 36.88,-30 67.82,-30 z" /><path
         id="path122"
         style="fill:#002a46;fill-opacity:1;fill-rule:nonzero;stroke:none"
         d="m 2816.21,16.6797 h -67.0313 v 410.469 h 67.0313 z m 5.31,519.3713 c 0,-11.36 -3.2,-20.852 -9.53,-28.43 -6.25,-7.621 -15.86,-11.41 -28.75,-11.41 -12.62,0 -22.11,3.789 -28.44,11.41 -6.36,7.578 -9.53,17.07 -9.53,28.43 0,11.449 3.17,21.097 9.53,28.91 6.33,7.809 15.82,11.719 28.44,11.719 12.58,0 22.11,-4.02 28.6,-12.032 6.44,-7.929 9.68,-17.457 9.68,-28.597 z" /><path
         id="path124"
         style="fill:#002a46;fill-opacity:1;fill-rule:nonzero;stroke:none"
         d="m 2984.69,427.148 1.87,-44.378 c 26.02,34.691 59.3,52.031 99.85,52.031 72.57,0 109.37,-48.43 110.31,-145.313 V 16.6797 H 3130 V 286.371 c 0,32.18 -5.39,55.039 -16.09,68.59 -10.75,13.519 -26.88,20.309 -48.44,20.309 -16.68,0 -31.68,-5.579 -45,-16.719 -13.24,-11.172 -23.91,-25.699 -32.03,-43.59 V 16.6797 h -67.03 V 427.148 Z" /><path
         id="path126"
         style="fill:#002a46;fill-opacity:1;fill-rule:nonzero;stroke:none"
         d="m 3509.02,16.6797 c -4.06,8.832 -6.99,23.7891 -8.75,44.8398 -23.75,-35 -54.14,-52.49997 -91.09,-52.49997 -37.19,0 -66.21,10.39067 -87.03,31.24997 -20.86,20.9414 -31.25,50.3516 -31.25,88.2815 0,41.758 14.14,74.89 42.5,99.379 28.32,24.57 67.11,37.109 116.4,37.66 h 49.38 v 43.59 c 0,24.57 -5.47,42.031 -16.41,52.34 -10.86,10.39 -27.42,15.628 -49.68,15.628 -20.24,0 -36.68,-6.058 -49.38,-18.128 -12.62,-11.989 -18.91,-27.18 -18.91,-45.622 h -67.03 c 0,20.942 6.14,40.942 18.44,60 12.38,19.141 29.1,34.141 50.16,45 21.01,10.942 44.41,16.403 70.15,16.403 41.96,0 73.91,-10.461 95.78,-31.403 21.88,-20.859 33.05,-51.207 33.6,-91.097 v -207.18 c 0.31,-31.6796 4.61,-59.1405 12.97,-82.3515 v -6.0898 z m -89.53,53.4414 c 16.45,0 32.11,4.5273 47.03,13.5898 14.89,9.1407 25.78,20.5511 32.66,34.2191 v 97.968 h -37.97 c -31.87,-0.546 -57.03,-7.738 -75.47,-21.558 -18.44,-13.75 -27.65,-33.051 -27.65,-57.82 0,-23.239 4.61,-40.1098 13.9,-50.6216 9.38,-10.5468 25.2,-15.7773 47.5,-15.7773 z" /><path
         id="path128"
         style="fill:#002a46;fill-opacity:1;fill-rule:nonzero;stroke:none"
         d="m 3757.54,526.68 v -99.532 h 61.87 V 372.93 h -61.87 V 118.398 c 0,-16.25 2.66,-28.5582 7.97,-36.8785 5.31,-8.3593 14.41,-12.5 27.34,-12.5 8.83,0 17.81,1.4922 26.88,4.5313 l -0.78,-56.8711 c -15.12,-5.0781 -30.63,-7.66017 -46.57,-7.66017 -26.56,0 -46.83,9.46097 -60.78,28.44137 -13.87,19.0586 -20.78,45.8594 -20.78,80.4691 v 255 h -62.66 v 54.218 h 62.66 v 99.532 z" /><path
         id="path130"
         style="fill:#002a46;fill-opacity:1;fill-rule:nonzero;stroke:none"
         d="m 4045.47,9.01953 c -51.06,0 -90.27,15.24217 -117.66,45.78127 -27.3,30.5078 -41.21,75.1992 -41.72,134.0702 v 49.84 c 0,61.129 13.32,109.098 40,143.91 26.76,34.758 64.07,52.18 111.88,52.18 48.01,0 83.91,-15.313 107.65,-45.93 23.83,-30.633 35.98,-78.281 36.41,-142.973 V 201.84 h -229.06 v -9.539 c 0,-43.981 8.28,-75.93 24.84,-95.9299 16.57,-20 40.39,-30 71.57,-30 19.68,0 37.03,3.668 52.03,11.0898 15.07,7.5 29.21,19.3789 42.34,35.6291 l 35,-42.5002 C 4149.57,29.5313 4105.16,9.01953 4045.47,9.01953 Z m -7.5,368.12847 c -27.81,0 -48.44,-9.609 -61.88,-28.75 -13.43,-19.058 -21.05,-48.707 -22.81,-88.91 H 4115 v 9.063 c -1.8,38.949 -8.83,66.758 -21.09,83.437 -12.31,16.762 -30.94,25.16 -55.94,25.16 z" /><path
         id="path132"
         style="fill:#002a46;fill-opacity:1;fill-rule:nonzero;stroke:none"
         d="m 4248.91,240.59 c 0,63.199 11.79,111.398 35.47,144.531 23.63,33.117 57.57,49.68 101.87,49.68 39.14,0 69.73,-15.93 91.72,-47.813 v 212.5 h 67.19 V 16.6797 h -61.41 l -3.44,44.0586 C 4458.32,26.25 4426.8,9.01953 4385.78,9.01953 c -42.5,0 -75.86,16.49217 -100,49.53127 -24.06,33.0078 -36.37,79.6092 -36.87,139.8472 z m 67.03,-38.442 c 0,-46.058 6.79,-79.918 20.47,-101.558 13.75,-21.5705 36.01,-32.3517 66.87,-32.3517 33.32,0 58.2,16.8008 74.69,50.4727 v 207.187 c -17.19,32.891 -41.99,49.372 -74.38,49.372 -30.86,0 -53.08,-10.86 -66.71,-32.5 -13.68,-21.68 -20.63,-54.84 -20.94,-99.532 z" /></g></g></svg>