<svg fill="#000000" xmlns="http://www.w3.org/2000/svg"  viewBox="0 0 64 64" width="64px" height="64px"><path d="M 48 5 L 45 8 L 47 11 L 42.5 15.5 L 34 7 L 31 10 L 34.269531 14.902344 L 8.828125 40.341797 L 9.0390625 41.392578 C 9.0390625 41.392578 9.7337299 45.454852 12.289062 48.900391 L 5 57 L 6 60 L 15.111328 51.716797 C 18.554617 54.265761 22.607422 54.960937 22.607422 54.960938 L 23.658203 55.171875 L 24.414062 54.414062 L 49.097656 29.730469 L 54 33 L 57 30 L 48.5 21.5 L 53 17 L 56 19 L 59 16 L 48 5 z M 36.914062 17.914062 L 46.085938 27.085938 L 41.03125 32.140625 L 33 26 L 29.060547 29.939453 L 32.060547 32.939453 L 29.939453 35.060547 L 26.939453 32.060547 L 24.060547 34.939453 L 27.060547 37.939453 L 24.939453 40.060547 L 21.939453 37.060547 L 19.060547 39.939453 L 22.060547 42.939453 L 19.939453 45.060547 L 16.939453 42.060547 L 14.392578 44.607422 C 13.801427 43.373136 13.447595 42.211407 13.267578 41.560547 L 36.914062 17.914062 z"/></svg>