<svg xmlns="http://www.w3.org/2000/svg"  viewBox="0 0 80 80" width="40px" height="40px"><path fill="#fff" d="M2.5 2.5H77.5V77.5H2.5z"/><path fill="#788b9c" d="M77,3v74H3V3H77 M78,2H2v76h76V2L78,2z"/><path fill="#f78f8f" d="M2.5 2.5H77.5V14.167H2.5z"/><path fill="#c74343" d="M77,3v10.667H3V3H77 M78,2H2v12.667h76V2L78,2z"/><path fill="#e1ebf2" d="M3 71H77V77H3z"/><path fill="#c5d4de" d="M46.333 33.667H52.666V40H46.333zM56.889 33.667H63.222V40H56.889zM35.778 33.667H42.111V40H35.778zM46.333 44.222H52.666V50.555H46.333zM56.889 44.222H63.222V50.555H56.889zM25.222 44.222H31.555V50.555H25.222zM35.778 44.222H42.111V50.555H35.778z"/><path fill="#f78f8f" d="M46.833 55.278H52.166V60.611H46.833z"/><path fill="#c74343" d="M51.667,55.778v4.333h-4.333v-4.333H51.667 M52.667,54.778h-6.333v6.333h6.333V54.778 L52.667,54.778z"/><path fill="#c5d4de" d="M25.222 54.778H31.555V61.111H25.222zM25.222 33.667H31.555V40H25.222zM14.667 44.222H21V50.555H14.667zM46.333 23.111H52.666V29.444000000000003H46.333zM56.889 23.111H63.222V29.444000000000003H56.889zM35.778 23.111H42.111V29.444000000000003H35.778zM25.222 23.111H31.555V29.444000000000003H25.222z"/><g><path fill="#c5d4de" d="M14.667 33.667H21V40H14.667z"/></g><g><path fill="#c5d4de" d="M14.667 54.778H21V61.111H14.667z"/></g><g><path fill="#c5d4de" d="M35.778 54.778H42.111V61.111H35.778z"/></g></svg>