<?xml version="1.0" encoding="UTF-8" standalone="no"?>
<svg
   xmlns:dc="http://purl.org/dc/elements/1.1/"
   xmlns:cc="http://creativecommons.org/ns#"
   xmlns:rdf="http://www.w3.org/1999/02/22-rdf-syntax-ns#"
   xmlns:svg="http://www.w3.org/2000/svg"
   xmlns="http://www.w3.org/2000/svg"
   viewBox="0 0 338.66666 300"
   height="300"
   width="338.66666"
   xml:space="preserve"
   id="svg2"
   version="1.1"><metadata
     id="metadata8"><rdf:RDF><cc:Work
         rdf:about=""><dc:format>image/svg+xml</dc:format><dc:type
           rdf:resource="http://purl.org/dc/dcmitype/StillImage" /></cc:Work></rdf:RDF></metadata><defs
     id="defs6" /><g
     transform="matrix(1.3333333,0,0,-1.3333333,0,300)"
     id="g10"><g
       transform="scale(0.1)"
       id="g12"><path
         id="path14"
         style="fill:#68c7de;fill-opacity:1;fill-rule:evenodd;stroke:none"
         d="m 458.711,1843.71 c -21.801,-9.96 -45.473,-9.22 -71.012,2.23 -34.027,-28.87 -53.289,-46.64 -57.699,-53.32 -19.262,25.54 -31.09,53.47 -35.551,83.83 -4.058,30.35 -5.738,46.83 -5,49.37 7.031,57.77 30.711,87.89 71.063,90.51 39.957,2.62 62.886,1.83 68.828,-2.23 -47.738,-2.22 -77.539,-11.83 -89.379,-28.87 -11.84,-17.03 -16.801,-29.41 -15,-37.18 7.418,4.06 14.84,7.97 22.187,11.64 2.622,11.09 7.422,22.77 14.454,35 13.32,0.35 25.546,0.15 36.636,-0.55 2.231,3.32 31.453,16.25 87.66,38.83 55.903,22.54 126.403,36.64 211.481,42.19 -2.969,2.96 -40.149,3.51 -111.559,1.64 -71.761,-1.84 -158.519,-23.83 -260.269,-66.02 -25.903,-15.58 -38.871,-23.9 -38.871,-25 -7.032,-5.94 -11.09,-13.67 -12.192,-23.32 -4.449,-67.66 2.782,-117.62 21.641,-149.84 18.48,-32.54 29.422,-48.64 32.742,-48.24 23.32,21.44 47.578,36.05 72.731,43.82 25.117,7.78 38.828,11.45 41.058,11.1 -38.129,-21.1 -65.711,-40.9 -82.699,-59.42 11.84,-3.32 24.809,-22.54 38.828,-57.69 -6.988,20.35 -10.738,31.25 -11.09,32.73 5.539,15.9 13.512,28.71 23.86,38.28 10.351,9.3 16.293,13.87 17.781,13.87 -14.461,-24.41 -19.07,-52.89 -13.871,-85.43 5.152,-32.58 9.609,-53.32 13.281,-62.15 7.031,-12.61 15.199,-25.19 24.41,-37.77 -15.89,44.06 -21.441,88.08 -16.64,132.11 4.46,44.02 11.839,80.66 22.191,109.88" /><path
         id="path16"
         style="fill:#68c7de;fill-opacity:1;fill-rule:evenodd;stroke:none"
         d="m 638.012,1439.69 c 4.449,-0.74 24.258,0.74 59.367,4.41 35.512,3.71 60.711,14.26 75.473,31.68 -5.551,0.31 -19.571,11.6 -42.192,33.79 -22.93,22.23 -19.961,52.58 8.91,91.05 -75.511,-26.99 -112.66,-59.76 -111.558,-98.24 0.738,-38.12 4.058,-59.02 10,-62.69" /><path
         id="path18"
         style="fill:#68c7de;fill-opacity:1;fill-rule:evenodd;stroke:none"
         d="m 570.309,1829.26 c -8.899,10.78 -19.258,20.9 -31.09,30.54 -48.09,-53.63 -71.758,-103.59 -71.059,-149.84 0.75,-46.64 10,-84.18 27.781,-112.66 17.731,-28.86 27.93,-43.67 30.508,-44.41 23.281,18.13 44.02,30.16 62.141,36.09 18.519,5.9 28.129,8.68 28.871,8.32 -31.441,-25.93 -55.313,-49.96 -71.563,-72.14 8.481,-16.64 39.18,-45.16 92.114,-85.47 -23.711,21.09 -39.813,41.4 -48.282,61.05 -8.171,19.61 -11.839,30.12 -11.101,31.6 51.801,48.87 98.012,75.67 138.75,80.47 -28.508,17.39 -71.598,18.71 -129.289,3.91 -6.289,2.97 -15.942,21.09 -28.91,54.37 -12.969,33.32 7.929,62.54 62.699,87.74 -2.539,5.15 3.742,17.15 18.902,36.05 -35.551,-4.45 -77.691,-20.93 -126.562,-49.41 -2.578,5.55 16.09,33.51 56.09,83.79" /><path
         id="path20"
         style="fill:#68c7de;fill-opacity:1;fill-rule:evenodd;stroke:none"
         d="m 317.77,1906.99 c 1.492,0.39 5,-2.61 10.55,-8.9 5.2,-5.9 3.321,-17.39 -5.55,-34.38 -4.84,-10.78 -5.579,-21.48 -2.219,-32.23 3.668,-10.7 5.929,-16.44 6.679,-17.18 15.891,15.54 32.731,27.18 50.469,34.96 -18.871,4.41 -26.449,16.83 -22.738,37.19 0.738,1.48 2.23,8.86 4.418,22.22 2.223,12.93 -0.399,22.93 -7.738,29.96 -15.59,-10.04 -26.84,-20.54 -33.871,-31.64" /><path
         id="path22"
         style="fill:#68c7de;fill-opacity:1;fill-rule:evenodd;stroke:none"
         d="m 903.281,1206.02 c 75.86,-78.83 143.199,-123.4 202.029,-133.75 58.83,-9.97 89.92,-12.74 93.24,-8.32 9.26,14.41 19.07,28.32 29.42,41.6 -29.61,-2.58 -48.32,1.87 -56.06,13.32 -0.35,-0.35 -0.58,-0.55 -0.58,-0.55 -9.57,30 -22.93,56.6 -39.92,79.96 -54.42,16.25 -101.76,36.8 -142.07,61.56 0,0.39 -1.141,2.43 -3.36,6.1 -54.769,-33.28 -82.308,-53.28 -82.699,-59.92" /><path
         id="path24"
         style="fill:#68c7de;fill-opacity:1;fill-rule:evenodd;stroke:none"
         d="m 1361.72,1042.85 c -15.55,-9.26 -30.35,-18.67 -44.38,-28.32 l 44.38,28.32" /><path
         id="path26"
         style="fill:#f5eb14;fill-opacity:1;fill-rule:evenodd;stroke:none"
         d="m 669.648,1095.04 c 1.832,2.93 22.731,8.87 62.731,17.73 39.57,8.52 86.531,2.58 140.941,-17.73 -4.8,2.93 -17.929,20.9 -39.41,53.79 -21.449,32.97 -23.48,63.32 -6.101,91.05 -3.707,0.74 -24.411,-9.61 -62.149,-31.09 -37.769,-21.45 -69.762,-59.38 -96.012,-113.75" /><path
         id="path28"
         style="fill:#68c7de;fill-opacity:1;fill-rule:evenodd;stroke:none"
         d="m 975.43,1348.12 c -62.891,-21.87 -134.102,-56.24 -213.668,-103.24 4.097,-5.19 13.859,-12.22 29.41,-21.13 22.93,11.09 35.156,16.48 36.637,16.13 -7.028,-8.16 -10.93,-17.22 -11.68,-27.22 12.973,-5.16 28.871,-10.55 47.742,-16.1 38.859,40.74 77.379,68.64 115.469,83.83 -9.262,18.52 -10.59,41.06 -3.91,67.73" /><path
         id="path30"
         style="fill:#68c7de;fill-opacity:1;fill-rule:evenodd;stroke:none"
         d="m 1695.31,1265.39 c -0.39,-0.74 -12.81,-5.35 -37.22,-13.87 -24.81,-8.51 -59.42,-15.15 -103.79,-19.96 -1.1,-3.01 -14.42,-17.93 -39.92,-44.96 -25.94,-27.03 -58.13,-49.61 -96.57,-67.73 0,-0.35 0,-0.75 0,-1.1 1.45,-1.09 14.22,0.55 38.28,5 24.03,4.07 49.22,18.28 75.47,42.7 -2.97,2.62 9.42,10.19 37.15,22.77 27.42,12.58 86.06,13.71 175.98,3.36 -0.39,0 -4.26,-0.94 -11.68,-2.77 h 0.58 l 28.83,-2.23 c 1.88,2.62 0.2,14.22 -5,34.96 -5.54,21.1 -26.25,35.71 -62.11,43.83" /><path
         id="path32"
         style="fill:#68c7de;fill-opacity:1;fill-rule:evenodd;stroke:none"
         d="m 1317.34,1118.32 c -25.15,-49.96 -40.15,-87.5 -44.96,-112.66 12.23,-3.67 27.19,-0.74 44.96,8.87 0,4.85 12.39,35.94 37.15,93.24 -12.58,1.14 -24.96,4.65 -37.15,10.55" /><path
         id="path34"
         style="fill:#68c7de;fill-opacity:1;fill-rule:evenodd;stroke:none"
         d="m 1762.42,1186.6 68.87,-6.13 c -19.26,6.29 -42.19,8.36 -68.87,6.13" /><path
         id="path36"
         style="fill:#68c7de;fill-opacity:1;fill-rule:evenodd;stroke:none"
         d="m 211.172,583.281 c 36.637,10.039 73.277,16.84 109.918,20.59 16.68,23.668 31.101,46.399 43.289,68.238 -85.078,-28.828 -129.301,-44.769 -132.617,-47.73 20.699,27.73 40.308,58.82 58.828,93.242 -24.418,-35.902 -45.551,-62.891 -63.289,-81.019 -17.77,-18.512 -26.992,-27.774 -27.731,-27.774 12.93,-15.508 16.84,-24.058 11.602,-25.547" /><path
         id="path38"
         style="fill:#68c7de;fill-opacity:1;fill-rule:evenodd;stroke:none"
         d="M 323.32,587.191 C 267.809,572.77 222.5,556.68 187.34,538.91 c -35.149,-17.738 -59.57,-31.84 -73.281,-42.191 12.23,2.582 24.961,1.832 38.32,-2.231 12.93,-4.058 19.961,-6.636 21.101,-7.769 0,1.133 11.989,8.511 36.051,22.23 24.059,13.711 60.508,27.34 109.379,41.051 4.02,14.449 5.539,26.84 4.41,37.191" /><path
         id="path40"
         style="fill:#68c7de;fill-opacity:1;fill-rule:evenodd;stroke:none"
         d="m 155.699,587.77 c 30,11.101 44.77,18.128 44.379,21.058 L 155.699,587.77" /><path
         id="path42"
         style="fill:#68c7de;fill-opacity:1;fill-rule:evenodd;stroke:none"
         d="m 306.68,706.52 c 29.609,7.39 58.09,13.871 85.468,19.421 25.903,63.278 39.024,112.649 39.411,148.161 0.39,35.16 -0.387,53.128 -2.219,53.867 12.93,57.691 32.34,95.231 58.281,112.651 25.539,17.04 39.758,24.81 42.688,23.33 18.519,17.03 36.64,33.47 54.421,49.37 20.348,34.02 59.02,76.41 115.969,127.07 57,50.35 135.43,90.66 235.321,121.02 49.601,22.22 87.34,35.35 113.24,39.41 -146.53,-19.96 -258.6,-55.7 -336.33,-107.11 -77.7,-51.05 -130.629,-99.53 -158.711,-145.39 -28.168,-45.55 -41.449,-69.96 -40,-73.28 -38.828,-5.94 -67.149,-16.64 -84.879,-32.19 -17.781,-15.55 -28.871,-29.76 -33.32,-42.73 -3.719,-11.1 -5.36,-17.03 -4.969,-17.78 -4.801,-31.051 -11.321,-60.309 -19.449,-87.692 5.898,14.454 8.867,22.032 8.867,22.774 -3.668,-60.313 -16.25,-110.082 -37.739,-149.301 -21.05,-39.57 -33.121,-60.109 -36.05,-61.601" /><path
         id="path44"
         style="fill:#173863;fill-opacity:1;fill-rule:evenodd;stroke:none"
         d="m 531.449,1506.29 c 0.391,1.48 8.512,11.99 24.41,31.6 16.289,20 37.032,40 62.192,59.96 -1.141,0.35 -10.942,-2.42 -29.461,-8.32 -18.121,-6.29 -38.86,-18.32 -62.141,-36.05 -2.929,0.74 -13.679,16.4 -32.187,47.14 -18.133,30.32 -26.641,69.93 -25.512,118.79 1.48,48.83 30.512,101.18 87.109,157.04 56.25,55.89 157.621,109.53 304.18,160.93 -2.617,-0.31 -27.578,-7.93 -74.961,-22.73 -46.988,-14.42 -100.277,-33.09 -159.848,-56.02 -59.921,-22.61 -110.031,-46.68 -150.429,-72.18 -2.531,-2.23 -10.852,-26.25 -24.961,-72.15 -13.668,-45.51 -17.57,-97.66 -11.641,-156.53 5.903,-58.82 37,-109.33 93.25,-151.48" /><path
         id="path46"
         style="fill:#173863;fill-opacity:1;fill-rule:evenodd;stroke:none"
         d="m 514.219,1745.47 c -2.188,4.45 13.711,29.26 47.73,74.41 33.711,45.47 97.699,85.78 192.071,120.94 -3.36,-0.7 -20.192,-11.25 -50.54,-31.64 -29.96,-20.66 -53.089,-48.09 -69.378,-82.11 1.878,2.19 16.839,5.16 45,8.87 28.089,4.1 57.847,-4.61 89.339,-26.1 4.797,1.49 31.598,-1.09 80.469,-7.77 48.82,-6.68 90.469,-25.51 124.879,-56.6 -0.738,2.97 33.481,19.8 102.691,50.51 69.54,30.7 178.52,59.22 326.88,85.47 -4.06,0 -37.38,-8.33 -99.88,-25 -62.19,-17 -128.4,-43.09 -198.75,-78.21 -69.89,-34.8 -118.558,-79.37 -145.941,-133.75 -1.129,0.31 -5.699,4.96 -13.867,13.87 -8.512,8.87 -14.613,19.02 -18.32,30.51 4.449,5.54 2.226,21.64 -6.641,48.28 -8.512,26.64 -50.699,30.9 -126.52,12.77 0,2.23 -10.043,10.35 -30.043,24.42 -20.308,14.06 -51.019,21.64 -92.07,22.77 -41.449,1.48 -93.828,-15.74 -157.109,-51.64" /><path
         id="path48"
         style="fill:#173863;fill-opacity:1;fill-rule:evenodd;stroke:none"
         d="m 578.629,1532.93 c -0.738,-1.48 3.172,-12.23 11.641,-32.19 8.171,-19.65 24.031,-39.96 47.742,-61.05 -2.231,1.48 -5.742,13.86 -10.59,37.15 -4.801,23.32 3.199,48.47 23.906,75.5 21.094,27 68.832,47 143.16,59.93 -2.187,3.71 -24.797,4.45 -67.648,2.26 -42.578,-2.26 -92,-29.45 -148.211,-81.6" /><path
         id="path50"
         style="fill:#68c7de;fill-opacity:1;fill-rule:evenodd;stroke:none"
         d="m 1007.62,1662.23 c -0.74,2.57 15.74,16.64 49.41,42.18 33.67,25.51 88.24,47.89 163.75,67.15 -4.8,-2.22 -27.58,-17.03 -68.32,-44.41 -40.31,-27.74 -69.53,-55.31 -87.66,-82.66 2.62,-1.87 16.1,-19.84 40.51,-53.87 24.42,-34.02 46.25,-73.78 65.51,-119.33 l 140.39,-46.06 c -4.41,2.97 -29.22,2.97 -74.33,0 l 80.46,-41.05 -75.5,18.87 c 0,1.09 -7.58,8.16 -22.78,21.09 -15.15,12.93 -37.34,24.96 -66.6,36.06 0.39,2.22 -6.99,20.74 -22.19,55.5 -15.15,34.42 -38.82,71.06 -71.01,109.92 5.9,-5.93 13.86,-29.45 23.83,-70.5 -0.71,2.58 -8.13,16.64 -22.19,42.18 -13.71,25.9 -31.45,47.5 -53.28,64.93" /><path
         id="path52"
         style="fill:#173863;fill-opacity:1;fill-rule:evenodd;stroke:none"
         d="m 1039.26,1565.08 c 1.13,0 12.58,-9.96 34.45,-29.96 21.45,-20.32 45.47,-51.76 72.15,-94.34 1.44,-0.74 17.73,-9.41 48.83,-26.05 31.05,-17.07 67.5,-37.23 109.33,-60.55 -1.87,0.74 -11.68,4.06 -29.45,10.04 -17.73,5.86 -33.12,10.12 -46.05,12.73 1.48,-0.74 9.06,-6.48 22.77,-17.22 13.67,-10.71 24.61,-21.25 32.73,-31.61 -1.48,1.49 -12.57,7.93 -33.28,19.42 -21.13,11.44 -44.22,20.16 -69.37,26.05 6.29,-5.15 9.41,-20.31 9.41,-45.47 0.39,1.1 -2.58,9.61 -8.87,25.55 -6.29,15.51 -18.32,30.86 -36.05,46.06 0,2.57 -8.91,21.44 -26.68,56.6 -18.13,35.12 -44.77,71.4 -79.92,108.75" /><path
         id="path54"
         style="fill:#f5eb14;fill-opacity:1;fill-rule:evenodd;stroke:none"
         d="m 621.879,1693.28 c 2.609,3.75 20.391,12.58 53.32,26.68 32.922,14.42 66.403,10.9 100.422,-10.58 1.488,1.52 13.719,2.42 36.649,2.77 22.96,0.39 49.019,-9.57 78.281,-29.96 1.48,2.61 -4.071,12.22 -16.641,28.9 -12.969,16.64 -42.39,24.22 -88.289,22.74 -1.09,4.45 -16.992,10 -47.691,16.68 -30.352,6.25 -69.02,-12.81 -116.051,-57.23" /><path
         id="path56"
         style="fill:#173863;fill-opacity:1;fill-rule:evenodd;stroke:none"
         d="m 1091.99,1404.69 c -3.32,2.97 -41.64,2.22 -114.881,-2.19 -73.238,-4.84 -160.98,-29.61 -263.089,-74.38 -102.5,-45.11 -199.219,-126.91 -290.231,-245.31 -2.23,0 -9.648,-8.32 -22.187,-25 -12.582,-16.64 -16.332,-41.79 -11.133,-75.47 -1.84,2.969 4.609,16.64 19.453,41.1 14.418,24.02 49.18,41.25 104.297,51.6 -1.797,3.32 12.422,29.06 42.769,77.15 30.352,48.12 87.313,98.4 170.903,150.97 83.668,52.15 205,86.02 364.099,101.53" /><path
         id="path58"
         style="fill:#f5eb14;fill-opacity:1;fill-rule:evenodd;stroke:none"
         d="m 411.559,770.352 c 0.742,3.668 37.031,20.738 108.793,51.019 72.148,30.348 174.058,51.09 305.82,62.18 -0.391,1.879 -30.703,2.621 -91.012,2.23 -59.961,-0.742 -146.019,-14.062 -258.09,-39.961 1.84,1.09 9.571,14.258 23.282,39.379 13.32,24.801 20.898,54.25 22.769,88.281 1.141,2.571 25.899,15.352 74.34,38.28 48.867,22.58 114.527,39.41 197.027,50.54 -1.789,2.19 -32.148,1.65 -91.008,-1.71 -58.441,-3.68 -133.359,-22.93 -224.769,-57.7 3.359,-1.48 4.41,-23.87 3.359,-67.152 -1.129,-43.277 -24.648,-98.437 -70.511,-165.386" /><path
         id="path60"
         style="fill:#173863;fill-opacity:1;fill-rule:evenodd;stroke:none"
         d="m 101.328,486.719 c 0.391,4.101 31.25,22.383 92.692,54.961 61.41,32.539 151.332,54.57 269.691,66.019 -3.281,1.129 -31.25,1.129 -83.75,0 -52.582,-0.75 -108.789,-8.828 -168.789,-24.418 5.238,1.489 1.328,10.039 -11.602,25.547 0.739,-2.93 -13.121,-9.808 -41.64,-20.547 -28.481,-11.09 -75.3089,-9.41 -140.43,5.039 -1.8008,0.352 -6.2891,-3.011 -13.32031,-10.039 -7.37891,-6.601 -4.96094,-18.441 7.23051,-35.511 0,-1.442 7.7695,-9.45 23.3203,-23.821 15.5,-14.461 37.6914,-26.84 66.5975,-37.23" /><path
         id="path62"
         style="fill:#f8971c;fill-opacity:1;fill-rule:evenodd;stroke:none"
         d="m 173.48,486.719 c 0,4.453 30.899,20 92.692,46.64 62.148,26.993 155.937,39.411 281.367,37.192 -2.23,0 -20.508,-4.071 -54.961,-12.231 -34.418,-8.16 -72.539,-20.16 -114.34,-36.05 -42.187,-15.942 -75.468,-35.942 -99.879,-59.93 0.391,-1.481 -7.578,-2.219 -23.871,-2.219 -16.636,0.348 -43.629,9.219 -81.008,26.598" /><path
         id="path64"
         style="fill:#173863;fill-opacity:1;fill-rule:evenodd;stroke:none"
         d="m 232.301,624.379 c 6.289,5.543 71.219,27.73 194.808,66.601 123.59,38.469 269.18,60.5 436.762,66.051 -1.062,3.321 -49.769,5.899 -145.941,7.77 -96.211,1.84 -233.282,-17.61 -411.25,-58.281 2.929,1.492 15,21.8 36.05,61.058 21.489,39.184 34.071,88.981 37.739,149.301 -1.09,-5.551 -15.899,-41.449 -44.418,-107.66 -28.473,-65.899 -63.082,-127.5 -103.75,-184.84" /><path
         id="path66"
         style="fill:#173863;fill-opacity:1;fill-rule:evenodd;stroke:none"
         d="m 863.871,1197.15 c 1.129,-6.68 36.828,-37.74 107.149,-93.24 70.27,-55.16 169.06,-95.47 296.36,-121.019 -4.45,5.199 10.94,48.129 46.06,128.789 35.15,80.62 115.47,165.94 240.86,255.86 -5.9,1.09 -47.35,-22.42 -124.34,-70.51 -77.3,-47.73 -154.41,-125.43 -231.41,-233.08 -3.32,-4.42 -34.41,-1.49 -93.24,8.86 -58.83,10 -126.169,54.38 -202.029,133.21 0,4.41 20.547,20.74 61.641,48.82 41.448,28.17 102.268,42.78 182.578,43.83 -3.71,4.85 -34.61,5.78 -92.7,2.78 -58.472,-2.54 -122.101,-37.31 -190.929,-104.3" /><path
         id="path68"
         style="fill:#f8971c;fill-opacity:1;fill-rule:evenodd;stroke:none"
         d="m 563.629,1078.95 c -0.738,3.28 16.449,28.67 51.641,76.01 35.121,46.99 91.57,94.88 169.261,143.71 77.699,48.87 180.199,77.54 307.459,86.06 -2.93,0.39 -34.41,-9.07 -94.33,-28.28 -59.93,-19.65 -130.629,-51.84 -212.039,-96.61 -81.012,-45.15 -155,-105.46 -221.992,-180.89" /><path
         id="path70"
         style="fill:#f8971c;fill-opacity:1;fill-rule:evenodd;stroke:none"
         d="m 1080.31,1257.62 c 2.62,-1.1 15.04,-14.96 37.23,-41.6 22.54,-26.29 40.51,-58.87 53.79,-97.7 0.74,2.23 14.1,20.55 40,54.96 26.25,34.38 61.21,71.21 104.88,110.43 43.67,39.22 92.31,67.19 145.98,83.83 -4.81,0.35 -38.48,-12.07 -101.02,-37.19 -62.54,-25.55 -125.78,-66.99 -189.84,-124.33 -5.9,4.1 -36.25,21.25 -91.02,51.6" /><path
         id="path72"
         style="fill:#173863;fill-opacity:1;fill-rule:evenodd;stroke:none"
         d="m 1317.34,1014.53 c 0,2.23 7.35,22.23 22.19,59.96 14.81,38.09 36.99,80.47 66.6,127.07 29.96,46.99 67.35,85.28 112.07,114.89 -2.93,-1.45 -16.79,-20.9 -41.6,-58.25 -25.15,-36.99 -44.76,-83.67 -58.79,-139.88 1.45,-1.48 14.22,0 38.28,4.45 24.03,4.42 49.22,18.68 75.47,42.7 -2.97,3.01 9.42,10.78 37.15,23.36 27.42,12.54 86.06,13.47 175.98,2.77 -2.23,0 -27.42,-7.03 -75.51,-21.09 -48.09,-13.71 -105.04,-33.87 -170.9,-60.51 -65.51,-26.25 -125.82,-58.09 -180.94,-95.47" /><path
         id="path74"
         style="fill:#173863;fill-opacity:1;fill-rule:evenodd;stroke:none"
         d="m 1762.42,1187.15 c 1.88,2.58 0,14.22 -5.54,34.96 -5.16,20.74 -25.71,35.35 -61.57,43.83 -5.58,4.8 10.35,24.41 47.7,58.86 37.03,34.77 128.2,54.73 273.63,59.93 -5.94,0.7 -37.23,-5.9 -93.79,-19.96 -56.64,-13.72 -102.89,-39.97 -138.75,-78.83 0,-1.14 5.7,-7.19 17.15,-18.28 11.52,-11.14 27.58,-19.46 48.32,-25 2.93,1.48 16.48,-4.65 40.51,-18.32 24.06,-13.72 40.54,-43.68 49.41,-89.89 2.97,1.06 29.81,6.06 80.47,14.96 50.31,8.87 107.66,14.26 172.07,16.06 -2.26,0 -20.74,-2.54 -55.51,-7.74 -35.15,-4.8 -73.43,-12.57 -114.92,-23.28 -41.44,-10.39 -73.05,-23.51 -94.88,-39.41 0.74,4.8 -11.13,21.64 -35.51,50.51 -24.41,28.83 -67.34,42.69 -128.79,41.6" /><path
         id="path76"
         style="fill:#f8971c;fill-opacity:1;fill-rule:evenodd;stroke:none"
         d="m 681.879,1849.26 c 1.793,0.74 11.242,0.74 28.281,0 16.68,-1.14 30.309,-6.84 41.09,-17.23 -1.129,6.29 72.461,28.17 220.859,65.55 148.361,36.95 376.481,53.04 684.341,48.24 -6.29,2.23 -68.29,7.77 -185.94,16.64 -117.27,8.91 -251.45,7.42 -402.35,-4.41 -150.969,-12.23 -279.762,-48.48 -386.281,-108.79" /><path
         id="path78"
         style="fill:#f8971c;fill-opacity:1;fill-rule:evenodd;stroke:none"
         d="m 1655.31,1298.16 c -1.87,2.54 22.93,19.61 74.38,51.02 51.4,31.48 141.17,62.19 269.18,92.15 128.04,29.61 305.97,43.12 533.9,40.51 -6.68,3 -68.63,7.57 -185.89,13.86 -117.31,6.29 -250.51,-3.67 -399.61,-29.96 -149.15,-26.29 -274.38,-86.91 -375.75,-182.03 1.45,1.09 11.1,4.45 28.87,10 18.13,5.55 36.41,6.99 54.92,4.45" /><path
         id="path80"
         style="fill:#f8971c;fill-opacity:1;fill-rule:evenodd;stroke:none"
         d="m 563.629,941.289 c 0.391,4.063 -5,-17.23 -16.09,-63.828 -1.488,2.578 41.801,11.488 129.84,26.641 88.09,15.16 230.902,21.636 428.481,19.449 197.93,-1.871 460.47,-27.223 787.54,-76.051 -5.16,2.578 -75.47,16.801 -210.9,42.73 -135.39,25.899 -304.1,47.192 -506.13,63.829 -202.39,16.64 -406.679,12.351 -612.741,-12.77" /><path
         id="path82"
         style="fill:#f8971c;fill-opacity:1;fill-rule:evenodd;stroke:none"
         d="M 463.711,671.52 442.66,624.379 c 3.32,2.223 56.789,12.922 160.391,32.18 103.59,19.261 237.89,33.48 402.929,42.742 165.35,9.25 342.22,0 530.58,-27.781 -4.06,2.269 -59.57,11.839 -166.52,28.91 -107.31,17.031 -242.54,26.601 -405.7,28.871 C 801.52,731.84 634.691,712.66 463.711,671.52" /><path
         id="path84"
         style="fill:#eb2123;fill-opacity:1;fill-rule:evenodd;stroke:none"
         d="m 367.73,1475.2 c 0.711,-2.93 27.579,-13.13 80.469,-30.51 52.891,-17.39 128.75,-23.32 227.539,-17.78 98.793,5.2 217.192,40.12 355.202,104.89 l 24.41,-35.51 c -5.15,-4.84 -52.54,-27.58 -142.069,-68.28 -89.179,-40.71 -188.511,-70.67 -298.011,-89.92 -109.532,-19.57 -197.032,0.19 -262.54,59.41 l 15,77.7" /><path
         id="path86"
         style="fill:#eb2123;fill-opacity:1;fill-rule:evenodd;stroke:none"
         d="m 1139.18,1578.44 23.32,-32.78 c 4.8,4.07 57.89,32.23 159.26,84.38 101.01,52.15 220.7,103.24 359.1,153.2 138.36,49.92 266.02,73.95 382.93,72.15 -0.7,2.58 -37.54,3.52 -110.43,2.77 -72.89,-0.74 -178.16,-20.39 -315.82,-58.86 -137.62,-38.09 -303.71,-111.72 -498.36,-220.86" /><path
         id="path88"
         style="fill:#68c7de;fill-opacity:1;fill-rule:evenodd;stroke:none"
         d="m 428.75,1931.95 c -1.09,-1.09 -1.449,-6.87 -1.09,-17.22 0.391,-10.71 9.059,-20.16 26.09,-28.28 -1.871,2.22 5.941,17.03 23.32,44.41 16.989,27.03 53.981,51.99 111.02,74.92 -3.012,0 -22.231,-5.94 -57.781,-17.77 -35.508,-11.84 -69.368,-30.51 -101.559,-56.06" /><path
         id="path90"
         style="fill:#f5eb14;fill-opacity:1;fill-rule:evenodd;stroke:none"
         d="m 1171.33,1531.8 c 4.49,-6.64 12.62,-21.49 24.45,-44.42 1.84,1.14 23.48,-5.15 64.92,-18.86 41.45,-13.32 93.05,-39.42 154.85,-78.25 4.8,1.84 31.83,3.52 81.01,5 49.22,1.49 91.76,-7.77 127.66,-27.73 -1.06,5.16 28.32,27.73 88.24,67.69 59.96,39.57 157.11,66.02 291.37,79.38 -4.81,-0.39 -41.8,-0.2 -110.98,0.51 -68.83,0.74 -140.39,4.1 -214.76,10.04 -74.38,5.54 -122.11,15.5 -143.21,29.96 -20.7,14.06 14.61,34.61 106.02,61.6 -4.45,-1.13 -27.19,-2.93 -68.28,-5.55 -41.45,-2.62 -75.32,-0.39 -101.57,6.64 -26.25,7.42 -19.45,25.71 20.55,54.96 -2.62,0.35 -34.45,-10.35 -95.47,-32.18 -61.4,-21.84 -136.33,-58.13 -224.8,-108.79" /><path
         id="path92"
         style="fill:#f5eb14;fill-opacity:1;fill-rule:evenodd;stroke:none"
         d="m 772.852,1825.43 c 5.589,1.45 34.058,-0.23 85.468,-5.04 51.09,-4.8 91.02,-21.09 119.879,-48.83 -1.828,4.42 15.942,24.42 53.321,59.92 36.96,35.9 104.3,60.71 202,74.42 -5.55,1.09 -54.77,-3.52 -147.62,-13.87 -92.888,-10.39 -197.228,-32.58 -313.048,-66.6" /><path
         id="path94"
         style="fill:#f5eb14;fill-opacity:1;fill-rule:evenodd;stroke:none"
         d="m 1139.18,1610.04 c -1.13,1.13 -7.23,6.29 -18.32,15.58 -11.09,9.58 -20.7,15.9 -28.87,18.87 1.13,3.32 20.9,19.42 59.42,48.24 38.08,28.48 87.11,50.71 147.07,66.61 -3.36,-1.1 -17.78,-9.07 -43.32,-23.87 -25.9,-14.42 -42.93,-28.63 -51.06,-42.74 -8.12,-14.06 12.38,-20.66 61.6,-19.96 -4.84,-1.48 -24.41,-9.61 -58.79,-24.45 -34.84,-14.77 -57.38,-27.5 -67.73,-38.28" /><path
         id="path96"
         style="fill:#f5eb14;fill-opacity:1;fill-rule:evenodd;stroke:none"
         d="m 637.461,1989.65 c 1.84,1.52 18.129,8.32 48.828,20.55 30.352,12.57 64.371,20.58 102.109,23.86 -2.226,0 -14.808,0.55 -37.738,1.68 -22.93,1.1 -43.281,3.52 -61.051,7.19 -18.129,3.36 -20.55,8.36 -7.187,15.04 -2.262,1.44 -10.192,-0.98 -23.902,-7.27 -14.032,-6.29 -21.059,-26.6 -21.059,-61.05" /><path
         id="path98"
         style="fill:#f5eb14;fill-opacity:1;fill-rule:evenodd;stroke:none"
         d="m 1842.89,1296.48 c 6.68,1.45 30,-5.15 69.92,-20 40.35,-15.11 57.39,-48.98 51.1,-101.56 0.35,2.62 27.34,9.06 81.05,19.46 53.63,10.7 132.46,10.7 236.37,0 -3.28,0.39 -24.96,6.83 -64.88,19.41 -40,12.58 -78.44,27.93 -115.47,46.05 -37.35,18.52 -53.25,36.8 -47.7,54.96 5.16,18.13 51.6,33.09 139.26,44.93 -4.81,3.75 -43.28,5.39 -115.43,5.04 -72.15,0 -150.23,-22.78 -234.22,-68.29" /><path
         id="path100"
         style="fill:#68c7de;fill-opacity:1;fill-rule:evenodd;stroke:none"
         d="m 1007.11,1545.66 c -2.27,0.75 -9.649,7.97 -22.231,21.68 -12.219,13.68 -15.539,30.12 -10,49.38 -1.09,-0.74 -7.027,1.48 -17.731,6.64 -11.097,4.8 -21.128,15.39 -30,31.64 -0.738,-2.58 -13.867,-6.45 -39.378,-11.64 -25.54,-5.16 -58.821,4.61 -99.918,29.41 0,-1.83 -7.032,-4.06 -21.09,-6.68 -14.063,-2.93 -34.961,3.17 -62.703,18.32 -3.36,-2.22 -2.219,-10.35 3.32,-24.41 5.902,-14.06 37.191,-21.45 93.793,-22.19 0.738,-1.48 12.187,-6.64 34.379,-15.54 21.871,-9.26 49.961,-11.65 84.41,-7.23 -1.133,-1.09 3.16,-10.55 12.738,-28.28 9.25,-17.78 29.25,-36.06 59.961,-54.96 l 14.45,13.86" /><path
         id="path102"
         style="fill:#173863;fill-opacity:1;fill-rule:evenodd;stroke:none"
         d="m 274.488,1962.46 c -3.316,-1.8 -5.539,-25.7 -6.679,-71.56 -1.129,-45.9 19.613,-102.11 62.191,-168.71 -0.738,1.05 7.191,11.64 23.828,31.6 16.684,20 46.293,41.83 88.832,65.51 -2.23,0.35 -15.941,-3.32 -41.058,-11.1 -25.153,-7.77 -49.411,-22.38 -72.731,-43.82 -3.32,-0.4 -14.262,15.5 -32.742,47.69 -18.859,32.54 -26.09,82.73 -21.641,150.39" /><path
         id="path104"
         style="fill:#173863;fill-opacity:1;fill-rule:evenodd;stroke:none"
         d="m 424.34,1865.35 c -1.84,0.39 -13.36,-3.12 -34.418,-10.55 -21.094,-7.77 -41.801,-21.28 -62.192,-40.5 -1.089,0.74 -3.281,6.48 -6.64,17.18 -3.711,10.75 -2.93,21.45 2.23,32.23 8.91,16.64 10.551,28.09 5,34.38 -5.55,6.29 -9.058,9.29 -10.55,8.9 31.449,38.48 121.718,81.92 270.82,130.39 -3.281,0.74 -31.988,-5.54 -86.012,-18.83 -53.988,-13.32 -113.238,-36.83 -177.617,-70.5 -1.801,7.77 3.16,20.15 15,37.18 11.84,17.04 41.641,26.65 89.379,28.87 -5.942,4.06 -28.871,4.85 -68.828,2.23 -40.352,-2.62 -64.032,-32.58 -71.063,-89.92 -0.738,-2.97 0.942,-19.61 5,-49.96 4.461,-30.36 16.289,-58.29 35.551,-83.83 1.48,2.26 12.191,12.97 32.191,32.22 19.957,19.26 40.7,32.74 62.149,40.51" /><path
         id="path106"
         style="fill:#173863;fill-opacity:1;fill-rule:evenodd;stroke:none"
         d="m 387.699,1734.92 c 0.352,-1.83 4.25,-13.87 11.68,-36.05 7.769,-21.84 17.531,-42.23 29.371,-61.06 -2.191,3.32 -6.449,22.35 -12.73,57.19 -6.29,34.77 -2.04,65.47 12.73,92.07 -1.09,-0.35 -6.84,-5.16 -17.191,-14.37 -10.7,-9.3 -18.707,-21.88 -23.86,-37.78" /><path
         id="path108"
         style="fill:#002a46;fill-opacity:1;fill-rule:nonzero;stroke:none"
         d="m 1232.7,2219.61 c 0,8.63 2.53,15.82 7.65,21.56 5.2,5.82 12.89,8.75 23.13,8.75 10.31,0 18.12,-2.93 23.43,-8.75 5.39,-5.74 8.13,-12.93 8.13,-21.56 0,-8.36 -2.74,-15.31 -8.13,-20.94 -5.31,-5.51 -13.12,-8.28 -23.43,-8.28 -10.24,0 -17.93,2.77 -23.13,8.28 -5.12,5.63 -7.65,12.58 -7.65,20.94 z" /><path
         id="path110"
         style="fill:#002a46;fill-opacity:1;fill-rule:nonzero;stroke:none"
         d="m 220.59,41.0508 -5.942,-7.6524 C 197.148,13.0898 171.559,2.92969 137.93,2.92969 c -29.809,0 -53.2386,9.87891 -70.3089,29.69141 -17,19.7578 -25.6328,47.7305 -25.9414,83.8989 v 54.218 c 0,38.641 7.6992,67.582 23.1211,86.883 15.5078,19.367 38.6792,29.059 69.5392,29.059 26.32,0 46.91,-7.34 61.711,-22.032 14.89,-14.687 23.051,-35.628 24.539,-62.808 h -34.692 c -1.367,17.18 -6.168,30.621 -14.378,40.308 -8.122,9.692 -20.469,14.532 -37.032,14.532 -19.797,0 -34.328,-6.52 -43.5896,-19.532 -9.1796,-12.929 -13.9882,-33.597 -14.3789,-62.027 v -56.41 c 0,-27.8126 5.3203,-49.1797 15.9414,-64.0626 C 103.09,39.8398 118.281,32.4609 138.09,32.4609 c 18.75,0 32.961,4.5274 42.648,13.5899 l 5.16,4.8476 V 114.648 H 135.43 v 29.532 h 85.16 z M 346.41,2.92969 c -25.551,0 -45.121,7.58201 -58.75,22.80861 -13.68,15.2031 -20.629,37.543 -20.941,67.0312 v 24.8515 c 0,30.617 6.64,54.609 20,72.027 13.32,17.383 31.953,26.09 55.941,26.09 23.942,0 41.871,-7.648 53.75,-22.968 11.949,-15.309 18.039,-39.18 18.281,-71.559 V 99.1797 H 300.16 v -4.6914 c 0,-21.9883 4.102,-37.9688 12.34,-47.9688 8.32,-10 20.23,-15 35.781,-15 9.879,0 18.598,1.8789 26.098,5.6289 7.5,3.75 14.531,9.6133 21.09,17.6524 l 17.5,-21.25 C 398.359,13.1211 376.172,2.92969 346.41,2.92969 Z M 342.66,186.84 c -13.988,0 -24.301,-4.809 -30.941,-14.379 -6.68,-9.492 -10.469,-24.301 -11.41,-44.371 h 80.781 v 4.531 c -0.86,19.449 -4.328,33.359 -10.469,41.719 -6.172,8.32 -15.461,12.5 -27.961,12.5 z" /><path
         id="path112"
         style="fill:#002a46;fill-opacity:1;fill-rule:nonzero;stroke:none"
         d="m 499.141,261.52 v -49.68 h 30.937 V 184.801 H 499.141 V 57.4609 c 0,-8.0507 1.289,-14.1406 3.91,-18.2812 2.687,-4.1797 7.258,-6.25 13.75,-6.25 4.371,0 8.82,0.6992 13.429,2.1914 L 529.77,6.67969 c -7.5,-2.5 -15.282,-3.75 -23.29,-3.75 -13.242,0 -23.359,4.73047 -30.308,14.21871 C 469.18,26.6016 465.699,40 465.699,57.3008 V 184.801 h -31.25 v 27.039 h 31.25 v 49.68 z" /><path
         id="path114"
         style="fill:#002a46;fill-opacity:1;fill-rule:nonzero;stroke:none"
         d="M 742.191,59.9609 805.309,282.77 h 38.132 L 757.5,6.67969 H 727.191 L 641.41,282.77 h 37.969 z" /><path
         id="path116"
         style="fill:#002a46;fill-opacity:1;fill-rule:nonzero;stroke:none"
         d="m 973.52,6.67969 c -2,4.37111 -3.442,11.80081 -4.379,22.33981 C 957.27,11.6016 942.109,2.92969 923.672,2.92969 c -18.551,0 -33.082,5.1914 -43.594,15.62111 -10.43,10.3984 -15.629,25.0781 -15.629,44.0703 0,20.8203 7.071,37.3789 21.25,49.6799 14.141,12.269 33.602,18.519 58.281,18.75 h 24.692 v 21.879 c 0,12.269 -2.774,20.98 -8.281,26.09 -5.43,5.199 -13.672,7.82 -24.692,7.82 -10.23,0 -18.508,-3.051 -24.84,-9.07 -6.25,-5.93 -9.379,-13.551 -9.379,-22.809 h -33.589 c 0,10.508 3.05,20.508 9.218,30 6.25,9.57 14.61,17.07 25.161,22.5 10.5,5.508 22.218,8.277 35.152,8.277 20.937,0 36.879,-5.269 47.808,-15.777 10.942,-10.43 16.49,-25.582 16.72,-45.473 V 50.8984 c 0.2,-15.8593 2.39,-29.6093 6.57,-41.24996 V 6.67969 Z M 928.828,33.3984 c 8.203,0 16.012,2.2618 23.442,6.8711 7.5,4.5703 12.96,10.2422 16.402,17.0313 v 48.9102 h -19.063 c -15.937,-0.231 -28.558,-3.75 -37.808,-10.6212 -9.18,-6.8789 -13.75,-16.5312 -13.75,-28.9101 0,-11.6797 2.34,-20.1602 7.027,-25.4688 4.692,-5.2304 12.582,-7.8125 23.75,-7.8125 z" /><path
         id="path118"
         style="fill:#002a46;fill-opacity:1;fill-rule:nonzero;stroke:none"
         d="m 1125.2,31.5195 c 11.01,0 19.88,3.4414 26.56,10.3203 6.76,6.8711 10.47,16.711 11.09,29.5313 h 31.72 c -0.74,-19.6914 -7.73,-36.0625 -20.94,-49.0703 -13.24,-12.92189 -29.37,-19.37111 -48.43,-19.37111 -25.43,0 -44.81,7.96871 -58.13,23.91011 -13.36,16.0118 -20,39.8399 -20,71.3985 v 22.6597 c 0,30.942 6.6,54.454 19.84,70.622 13.21,16.14 32.54,24.218 57.97,24.218 21.02,0 37.7,-6.679 50,-20 12.39,-13.238 18.95,-31.359 19.69,-54.367 h -31.72 c -0.74,15.188 -4.37,26.559 -10.94,34.059 -6.48,7.582 -15.46,11.41 -27.03,11.41 -14.92,0 -25.93,-4.93 -33.12,-14.692 -7.19,-9.808 -10.94,-25.898 -11.25,-48.277 V 97.7695 c 0,-24.1797 3.59,-41.25 10.78,-51.25 7.19,-10 18.48,-15 33.91,-15 z" /><path
         id="path120"
         style="fill:#002a46;fill-opacity:1;fill-rule:nonzero;stroke:none"
         d="m 1305,31.5195 c 11.02,0 19.88,3.4414 26.56,10.3203 6.76,6.8711 10.47,16.711 11.1,29.5313 h 31.72 C 1373.63,51.6797 1366.64,35.3086 1353.44,22.3008 1340.2,9.37891 1324.06,2.92969 1305,2.92969 c -25.43,0 -44.8,7.96871 -58.12,23.91011 -13.36,16.0118 -20,39.8399 -20,71.3985 v 22.6597 c 0,30.942 6.6,54.454 19.84,70.622 13.2,16.14 32.54,24.218 57.97,24.218 21.01,0 37.69,-6.679 50,-20 12.38,-13.238 18.94,-31.359 19.69,-54.367 h -31.72 c -0.75,15.188 -4.38,26.559 -10.94,34.059 -6.49,7.582 -15.47,11.41 -27.03,11.41 -14.92,0 -25.94,-4.93 -33.13,-14.692 -7.18,-9.808 -10.94,-25.898 -11.25,-48.277 V 97.7695 c 0,-24.1797 3.6,-41.25 10.78,-51.25 7.19,-10 18.48,-15 33.91,-15 z" /><path
         id="path122"
         style="fill:#002a46;fill-opacity:1;fill-rule:nonzero;stroke:none"
         d="m 1449.69,6.67969 h -33.6016 v 205.16 h 33.6016 z m 2.65,259.69131 c 0,-5.75 -1.64,-10.551 -4.84,-14.383 -3.12,-3.75 -7.93,-5.617 -14.38,-5.617 -6.24,0 -11.01,1.867 -14.21,5.617 -3.13,3.832 -4.69,8.602 -4.69,14.223 0,5.699 1.56,10.551 4.69,14.527 3.2,3.953 7.97,5.942 14.21,5.942 6.33,0 11.14,-2.032 14.38,-6.09 3.2,-3.988 4.84,-8.711 4.84,-14.219 z" /><path
         id="path124"
         style="fill:#002a46;fill-opacity:1;fill-rule:nonzero;stroke:none"
         d="m 1533.95,211.84 0.93,-22.192 c 13.01,17.383 29.61,26.09 49.85,26.09 36.32,0 54.72,-24.218 55.15,-72.648 V 6.67969 H 1606.6 V 141.52 c 0,16.019 -2.73,27.429 -8.12,34.218 -5.32,6.762 -13.36,10.16 -24.07,10.16 -8.43,0 -16.01,-2.808 -22.65,-8.437 -6.56,-5.551 -11.88,-12.77 -15.94,-21.723 V 6.67969 h -33.59 V 211.84 Z" /><path
         id="path126"
         style="fill:#002a46;fill-opacity:1;fill-rule:nonzero;stroke:none"
         d="m 1796.02,6.67969 c -2,4.37111 -3.44,11.80081 -4.38,22.33981 -11.87,-17.4179 -27.03,-26.08981 -45.47,-26.08981 -18.55,0 -33.08,5.1914 -43.59,15.62111 -10.43,10.3984 -15.63,25.0781 -15.63,44.0703 0,20.8203 7.07,37.3789 21.25,49.6799 14.14,12.269 33.6,18.519 58.28,18.75 h 24.69 v 21.879 c 0,12.269 -2.77,20.98 -8.28,26.09 -5.43,5.199 -13.67,7.82 -24.69,7.82 -10.23,0 -18.51,-3.051 -24.84,-9.07 -6.25,-5.93 -9.38,-13.551 -9.38,-22.809 h -33.59 c 0,10.508 3.05,20.508 9.22,30 6.25,9.57 14.61,17.07 25.16,22.5 10.5,5.508 22.22,8.277 35.15,8.277 20.94,0 36.88,-5.269 47.81,-15.777 10.94,-10.43 16.49,-25.582 16.72,-45.473 V 50.8984 c 0.2,-15.8593 2.39,-29.6093 6.57,-41.24996 V 6.67969 Z m -44.69,26.71871 c 8.2,0 16.01,2.2618 23.44,6.8711 7.5,4.5703 12.96,10.2422 16.4,17.0313 v 48.9102 h -19.06 c -15.94,-0.231 -28.56,-3.75 -37.81,-10.6212 -9.18,-6.8789 -13.75,-16.5312 -13.75,-28.9101 0,-11.6797 2.34,-20.1602 7.03,-25.4688 4.69,-5.2304 12.58,-7.8125 23.75,-7.8125 z" /><path
         id="path128"
         style="fill:#002a46;fill-opacity:1;fill-rule:nonzero;stroke:none"
         d="m 1920.35,261.52 v -49.68 h 30.94 v -27.039 h -30.94 V 57.4609 c 0,-8.0507 1.29,-14.1406 3.91,-18.2812 2.69,-4.1797 7.26,-6.25 13.75,-6.25 4.37,0 8.83,0.6992 13.44,2.1914 l -0.47,-28.44141 c -7.5,-2.5 -15.28,-3.75 -23.28,-3.75 -13.25,0 -23.36,4.73047 -30.32,14.21871 -6.99,9.4532 -10.47,22.8516 -10.47,40.1524 V 184.801 h -31.25 v 27.039 h 31.25 v 49.68 z" /><path
         id="path130"
         style="fill:#002a46;fill-opacity:1;fill-rule:nonzero;stroke:none"
         d="m 2064.34,2.92969 c -25.55,0 -45.12,7.58201 -58.75,22.80861 -13.68,15.2031 -20.63,37.543 -20.94,67.0312 v 24.8515 c 0,30.617 6.64,54.609 20,72.027 13.32,17.383 31.95,26.09 55.94,26.09 23.94,0 41.87,-7.648 53.75,-22.968 11.95,-15.309 18.04,-39.18 18.28,-71.559 V 99.1797 h -114.53 v -4.6914 c 0,-21.9883 4.1,-37.9688 12.34,-47.9688 8.32,-10 20.23,-15 35.78,-15 9.88,0 18.59,1.8789 26.09,5.6289 7.5,3.75 14.54,9.6133 21.1,17.6524 l 17.5,-21.25 C 2116.29,13.1211 2094.1,2.92969 2064.34,2.92969 Z M 2060.59,186.84 c -13.99,0 -24.3,-4.809 -30.94,-14.379 -6.68,-9.492 -10.47,-24.301 -11.41,-44.371 h 80.78 v 4.531 c -0.86,19.449 -4.33,33.359 -10.47,41.719 -6.17,8.32 -15.46,12.5 -27.96,12.5 z" /><path
         id="path132"
         style="fill:#002a46;fill-opacity:1;fill-rule:nonzero;stroke:none"
         d="m 2165.98,118.551 c 0,31.648 5.86,55.789 17.65,72.347 11.88,16.563 28.91,24.84 51.1,24.84 19.57,0 34.84,-7.968 45.78,-23.898 v 106.25 h 33.59 V 6.67969 h -30.62 l -1.72,22.03121 c -11.06,-17.1914 -26.8,-25.78121 -47.19,-25.78121 -21.25,0 -37.93,8.19921 -50,24.69141 -12.11,16.5586 -18.28,39.8398 -18.59,69.8398 z m 33.59,-19.0627 c 0,-23.0391 3.36,-39.957 10.16,-50.7774 6.87,-10.8593 18,-16.25 33.43,-16.25 16.76,0 29.22,8.4375 37.35,25.3086 V 161.211 c -8.56,16.449 -20.9,24.687 -37.03,24.687 -15.55,0 -26.72,-5.429 -33.6,-16.25 -6.79,-10.738 -10.23,-27.308 -10.31,-49.687 z" /></g></g></svg>