<svg xmlns="http://www.w3.org/2000/svg"  viewBox="0 0 64 64" width="64px" height="64px"><radialGradient id="lo4YvdvC_hQJsPVo0rUega" cx="32.128" cy="35.406" r="36.866" gradientTransform="matrix(1 0 0 -1 0 66)" gradientUnits="userSpaceOnUse"><stop offset="0" stop-color="#9ceeff"/><stop offset=".642" stop-color="#c5f5ff"/><stop offset="1" stop-color="#dcf9ff"/></radialGradient><path fill="url(#lo4YvdvC_hQJsPVo0rUega)" d="M46,49v4h11.5c2.15,0,3.84,1.94,3.44,4.16c-0.31,1.68-1.89,2.84-3.6,2.84H7.66	c-1.71,0-3.29-1.16-3.6-2.84C3.66,54.94,5.35,53,7.5,53H20v-4H7v0.01C6.97,49,6.93,49,6.9,49c-2.97-0.06-5.31-2.71-4.84-5.79	C2.44,40.74,4.72,39,7.22,39H19v-3H5c-2.48,0-4.43-2.26-3.92-4.83C1.46,29.29,3.23,28,5.15,28H19v-3H5c-3.44,0-6.07-3.48-4.57-7.11	C1.18,16.08,3.04,15,5,15h15v-4H7v0.01C6.97,11,6.94,11,6.91,11H6.5c-2.15,0-3.84-1.94-3.44-4.16C3.37,5.16,4.95,4,6.66,4h49.68	c1.71,0,3.29,1.16,3.6,2.84C60.34,9.06,58.65,11,56.5,11H45v4h12.1c2.97,0.06,5.31,2.71,4.84,5.79C61.56,23.26,59.28,25,56.78,25H45	v3h14c2.48,0,4.43,2.26,3.92,4.83C62.54,34.71,60.77,36,58.85,36H45v3h14c3.44,0,6.07,3.48,4.57,7.11C62.82,47.92,60.96,49,59,49H46	z"/><linearGradient id="lo4YvdvC_hQJsPVo0rUegb" x1="40" x2="40" y1="38.235" y2="-3.725" gradientTransform="matrix(1 0 0 -1 0 66)" gradientUnits="userSpaceOnUse"><stop offset="0" stop-color="#00d772"/><stop offset=".318" stop-color="#00d272"/><stop offset=".669" stop-color="#00c570"/><stop offset=".996" stop-color="#00b26e"/></linearGradient><path fill="url(#lo4YvdvC_hQJsPVo0rUegb)" d="M24.119,8h5.961l5.512,1l4.518-1H47c4.97,0,9,4.03,9,9v6.89l-1,4.158l1,5.872V47	c0,1.438-0.337,2.797-0.937,4.002L24,32L24.119,8z"/><linearGradient id="lo4YvdvC_hQJsPVo0rUegc" x1="14.5" x2="14.5" y1="-28.376" y2="23.622" gradientTransform="matrix(1 0 0 -1 0 66)" gradientUnits="userSpaceOnUse"><stop offset="0" stop-color="#ff8769"/><stop offset=".214" stop-color="#ff887d"/><stop offset=".524" stop-color="#fd8896"/><stop offset=".793" stop-color="#fc89a5"/><stop offset=".989" stop-color="#fc89aa"/><stop offset="1" stop-color="#fc89aa"/></linearGradient><path fill="url(#lo4YvdvC_hQJsPVo0rUegc)" d="M21,33l-0.79,23H17c-0.34,0-0.67-0.02-1-0.06c-4.5-0.49-8-4.31-8-8.94V25.35L21,33z"/><linearGradient id="lo4YvdvC_hQJsPVo0rUegd" x1="-971.318" x2="-970.318" y1="5524.357" y2="5524.357" gradientTransform="rotate(-90 -30567.195 21490.336) scale(9.4259)" gradientUnits="userSpaceOnUse"><stop offset="0" stop-color="#b6bdc3"/><stop offset="1" stop-color="#bcc2c9"/></linearGradient><path fill="url(#lo4YvdvC_hQJsPVo0rUegd)" d="M19.799,8H17c-0.34,0-0.67,0.02-1,0.06c-3.72,0.399-6.75,3.08-7.691,6.609	c-0.17,0.62-0.27,1.27-0.299,1.95L21,25.35L19.799,8"/><linearGradient id="lo4YvdvC_hQJsPVo0rUege" x1="37.6" x2="37.6" y1="-.409" y2="22.593" gradientTransform="matrix(1 0 0 -1 0 66)" gradientUnits="userSpaceOnUse"><stop offset="0" stop-color="#b6bdc3"/><stop offset="1" stop-color="#bcc2c9"/></linearGradient><path fill="url(#lo4YvdvC_hQJsPVo0rUege)" d="M22.26,31l-0.35,25H47c0.61,0,1.21-0.06,1.79-0.18c1.73-0.35,3.29-1.2,4.5-2.39L22.26,31"/><path fill="#fff" d="M40.11,8H30.08C31.05,21.85,42.15,32.95,56,33.92V23.89C47.67,22.96,41.04,16.33,40.11,8z"/><linearGradient id="lo4YvdvC_hQJsPVo0rUegf" x1="56.378" x2="27.366" y1="-20.744" y2="37.502" gradientTransform="matrix(1 0 0 -1 0 66)" gradientUnits="userSpaceOnUse"><stop offset="0" stop-color="#feaa53"/><stop offset=".612" stop-color="#ffcd49"/><stop offset="1" stop-color="#ffde44"/></linearGradient><path fill="url(#lo4YvdvC_hQJsPVo0rUegf)" d="M55.86,48.59c-0.65,3.63-3.47,6.5-7.07,7.23L8,26.73V17c0-0.81,0.11-1.59,0.31-2.33	L55.86,48.59z"/><path fill="#fff" d="M26,8v48h-9c-0.34,0-0.67-0.02-1-0.06V8.06C16.33,8.02,16.66,8,17,8H26z"/><linearGradient id="lo4YvdvC_hQJsPVo0rUegg" x1="21" x2="21" y1="1.112" y2="80.027" gradientTransform="matrix(1 0 0 -1 0 66)" gradientUnits="userSpaceOnUse"><stop offset="0" stop-color="#155cdc"/><stop offset=".486" stop-color="#2383e4"/><stop offset="1" stop-color="#2fb3ee"/></linearGradient><rect width="4" height="25" x="19" y="8" fill="url(#lo4YvdvC_hQJsPVo0rUegg)"/><linearGradient id="lo4YvdvC_hQJsPVo0rUegh" x1="21" x2="21" y1="35.816" y2="17.724" gradientTransform="matrix(1 0 0 -1 0 66)" gradientUnits="userSpaceOnUse"><stop offset="0" stop-color="#155cdc"/><stop offset=".486" stop-color="#2383e4"/><stop offset="1" stop-color="#2fb3ee"/></linearGradient><circle cx="21" cy="39" r="9" fill="url(#lo4YvdvC_hQJsPVo0rUegh)"/><path fill="#fff" d="M20.108,33.566l-3.982,7.837c-0.438,0.862,0.341,1.849,1.215,1.539l3.017-1.07	c0.417-0.148,0.868-0.148,1.285,0l3.017,1.07c0.874,0.31,1.653-0.678,1.215-1.539l-3.982-7.837	C21.509,32.811,20.491,32.811,20.108,33.566z"/><linearGradient id="lo4YvdvC_hQJsPVo0rUegi" x1="43" x2="43" y1="3.891" y2="32.821" gradientTransform="matrix(1 0 0 -1 0 66)" gradientUnits="userSpaceOnUse"><stop offset="0" stop-color="#155cdc"/><stop offset=".486" stop-color="#2383e4"/><stop offset="1" stop-color="#2fb3ee"/></linearGradient><path fill="url(#lo4YvdvC_hQJsPVo0rUegi)" d="M53,42.82c0,6.006-5.117,10.802-11.152,10.114c-4.546-0.518-8.247-4.263-8.777-8.888	c-0.227-1.977,0.103-3.86,0.852-5.505c0.281-0.617,1.09-0.72,1.565-0.242c0.902,0.908,2.142,1.466,3.512,1.466	c1.268,0,2.433-0.487,3.316-1.282c0.398-0.359,0.97-0.359,1.368,0c0.883,0.796,2.048,1.282,3.316,1.282	c1.369,0,2.608-0.557,3.509-1.463c0.494-0.497,1.307-0.346,1.595,0.298C52.68,39.886,53,41.316,53,42.82z"/><path fill="#fff" d="M42.999,50c-3.824,0.075-7.033-3.273-7.009-6.988c0.002-0.325,0.345-0.527,0.663-0.431	c0.75,0.226,1.54,0.343,2.347,0.343c1.236,0,2.444-0.283,3.536-0.816c0.295-0.144,0.633-0.144,0.928,0	c1.093,0.533,2.3,0.816,3.536,0.816c0.804,0,1.588-0.116,2.335-0.34c0.322-0.097,0.667,0.112,0.665,0.441	C49.974,46.876,46.843,50,42.999,50z"/></svg>