<?xml version="1.0" encoding="UTF-8" standalone="no"?>
<!-- Created with Inkscape (http://www.inkscape.org/) -->

<svg
   xmlns:dc="http://purl.org/dc/elements/1.1/"
   xmlns:cc="http://creativecommons.org/ns#"
   xmlns:rdf="http://www.w3.org/1999/02/22-rdf-syntax-ns#"
   xmlns:svg="http://www.w3.org/2000/svg"
   xmlns="http://www.w3.org/2000/svg"
   xmlns:sodipodi="http://sodipodi.sourceforge.net/DTD/sodipodi-0.dtd"
   xmlns:inkscape="http://www.inkscape.org/namespaces/inkscape"
   width="83.804871mm"
   height="83.209892mm"
   viewBox="0 0 83.804871 83.209892"
   version="1.1"
   id="svg8"
   inkscape:version="0.92.4 (5da689c313, 2019-01-14)"
   sodipodi:docname="ShotImg.svg">
  <defs
     id="defs2" />
  <sodipodi:namedview
     id="base"
     pagecolor="#ffffff"
     bordercolor="#666666"
     borderopacity="1.0"
     inkscape:pageopacity="0.0"
     inkscape:pageshadow="2"
     inkscape:zoom="0.7"
     inkscape:cx="484.19831"
     inkscape:cy="103.22961"
     inkscape:document-units="mm"
     inkscape:current-layer="layer1"
     showgrid="false"
     inkscape:window-width="1920"
     inkscape:window-height="1137"
     inkscape:window-x="1912"
     inkscape:window-y="-8"
     inkscape:window-maximized="1" />
  <metadata
     id="metadata5">
    <rdf:RDF>
      <cc:Work
         rdf:about="">
        <dc:format>image/svg+xml</dc:format>
        <dc:type
           rdf:resource="http://purl.org/dc/dcmitype/StillImage" />
        <dc:title></dc:title>
      </cc:Work>
    </rdf:RDF>
  </metadata>
  <g
     inkscape:label="Layer 1"
     inkscape:groupmode="layer"
     id="layer1"
     transform="translate(-63.498974,-115.39708)">
    <path
       style="fill:#0d5aa2;fill-opacity:1;stroke-width:0.26458335"
       d="m 70.410695,115.39708 c -0.836679,0 -1.243282,0.31001 -3.922757,2.98948 -2.632739,2.63274 -2.988964,3.09612 -2.988964,3.88555 0,1.94321 2.078842,2.78645 3.636986,1.47536 l 0.766879,-0.64544 3.750675,3.75688 3.750675,3.75739 -5.555734,5.55108 c -3.055678,3.05308 -5.555731,5.72676 -5.555731,5.94176 0,0.51697 2.647143,3.18585 3.160011,3.18585 0.220216,0 1.373876,-0.96819 2.56367,-2.1518 l 2.163691,-2.15233 0.404627,0.76326 c 0.2227,0.41963 8.904865,9.25466 19.293396,19.63343 17.881221,17.86444 18.946261,18.87815 19.977071,19.01641 1.65655,0.22219 2.28079,-0.0498 4.16874,-1.81591 l 1.73685,-1.62471 0.86144,0.83458 c 0.47365,0.45907 1.02975,0.83457 1.2361,0.83457 0.20636,0 0.94444,-0.56007 1.6397,-1.24488 l 1.264,-1.2454 11.04791,10.99519 c 10.28139,10.23219 11.13104,11.01325 12.23904,11.24944 0.65484,0.13956 1.21931,0.23746 1.2547,0.21756 0.0354,-0.0199 -5.23276,-5.32097 -11.70729,-11.78016 l -11.77189,-11.74399 1.05782,-1.07797 c 0.58195,-0.59296 1.05833,-1.21825 1.05833,-1.38957 0,-0.17134 -0.37672,-0.74018 -0.83664,-1.26401 l -0.83613,-0.9524 1.85674,-1.90117 c 1.02127,-1.04559 2.05284,-2.1956 2.29185,-2.5554 0.49843,-0.75032 0.57078,-2.41771 0.14211,-3.26595 -0.42999,-0.85083 -37.542453,-37.97977 -38.437967,-38.45502 l -0.762228,-0.40463 1.886707,-1.89962 c 1.037823,-1.04479 1.887225,-2.07174 1.887225,-2.28203 0,-0.51519 -2.655025,-3.17707 -3.168801,-3.17707 -0.224549,0 -2.906249,2.50005 -5.959324,5.55573 l -5.550566,5.55574 -3.758428,-3.75171 -3.758427,-3.75171 0.778764,-0.88729 c 1.44199,-1.64233 0.704257,-3.77909 -1.30483,-3.77909 z m 0.09922,1.46916 c 0.118737,0.008 0.210677,0.083 0.319878,0.19223 0.436798,0.43681 0.321096,0.59959 -2.30632,3.23598 -1.52147,1.52666 -2.843368,2.77554 -2.937287,2.77554 -0.09392,0 -0.325507,-0.18648 -0.5147,-0.41444 -0.296648,-0.35744 0.04439,-0.80248 2.477371,-3.23546 2.00964,-2.00964 2.604847,-2.57918 2.961058,-2.55385 z m 19.440157,1.5813 0.594796,0.59479 0.594278,0.59428 -11.768272,11.77086 c -6.472737,6.47396 -11.840239,11.77086 -11.927438,11.77086 -0.0872,0 -0.379198,-0.24389 -0.649057,-0.54209 -0.486254,-0.5373 -0.384469,-0.64854 11.332644,-12.36565 z m -1.318781,7.0037 c 0.498184,0 2.830113,2.18006 10.114626,9.45421 5.207063,5.19966 9.467643,9.52706 9.467643,9.61646 0,0.0894 -3.47001,3.5144 -7.71064,7.61142 -4.240647,4.09706 -7.787518,7.44916 -7.88221,7.44916 -0.09469,0 -0.703093,-0.54148 -1.351854,-1.20354 l -1.179256,-1.20406 3.784264,-3.73569 3.784782,-3.73517 -0.545703,-0.54571 -0.545187,-0.54518 -3.772895,3.76617 -3.773413,3.76618 -7.602122,-7.61865 c -5.800294,-5.81298 -7.601601,-7.77161 -7.601601,-8.2641 0,-0.93507 13.878375,-14.8115 14.813566,-14.8115 z m 20.414259,19.7435 9.109,9.12037 c 7.00756,7.01609 9.10901,9.26928 9.10901,9.76788 0,0.49522 -1.67106,2.31909 -7.08329,7.73131 -5.32445,5.32446 -7.2405,7.08278 -7.71684,7.08278 -0.4543,0 -1.50109,-0.86184 -3.69849,-3.04529 l -3.06492,-3.04581 3.91603,-3.87884 3.91656,-3.87883 -0.54519,-0.54467 -0.54467,-0.54467 -3.90622,3.8995 -3.90674,3.90002 -1.52083,-1.53737 -1.52136,-1.53686 3.98891,-3.93361 3.9889,-3.93361 -0.5457,-0.5457 -0.54571,-0.5457 -3.96719,3.96048 -3.9672,3.96048 -1.785425,-1.79162 -1.785419,-1.79162 3.916044,-3.87315 3.91655,-3.87315 -0.54519,-0.54467 -0.54467,-0.54467 -3.90725,3.90054 -3.907255,3.90053 -1.316196,-1.34307 -1.316199,-1.34307 5.688541,-5.54023 c 3.128699,-3.04711 6.679309,-6.45523 7.890469,-7.5737 z m 13.96038,26.7808 c 0.13215,0.005 0.2327,0.099 0.36432,0.24442 0.41718,0.46097 0.33961,0.58571 -1.48776,2.40089 -1.84502,1.83271 -1.94661,1.89376 -2.36781,1.42834 -0.41718,-0.46097 -0.33961,-0.58572 1.48776,-2.40089 1.26845,-1.25999 1.71278,-1.68287 2.00349,-1.67276 z"
       id="path826"
       inkscape:connector-curvature="0" />
  </g>
</svg>
