<?xml version="1.0" encoding="UTF-8" standalone="no"?>
<svg
   xmlns:dc="http://purl.org/dc/elements/1.1/"
   xmlns:cc="http://creativecommons.org/ns#"
   xmlns:rdf="http://www.w3.org/1999/02/22-rdf-syntax-ns#"
   xmlns:svg="http://www.w3.org/2000/svg"
   xmlns="http://www.w3.org/2000/svg"
   viewBox="0 0 593.33331 316"
   height="316"
   width="593.33331"
   xml:space="preserve"
   id="svg2"
   version="1.1"><metadata
     id="metadata8"><rdf:RDF><cc:Work
         rdf:about=""><dc:format>image/svg+xml</dc:format><dc:type
           rdf:resource="http://purl.org/dc/dcmitype/StillImage" /></cc:Work></rdf:RDF></metadata><defs
     id="defs6" /><g
     transform="matrix(1.3333333,0,0,-1.3333333,0,316)"
     id="g10"><g
       transform="scale(0.1)"
       id="g12"><path
         id="path14"
         style="fill:#68c7de;fill-opacity:1;fill-rule:evenodd;stroke:none"
         d="m 1376.33,1963.71 c -21.84,-9.96 -45.51,-9.22 -71.02,2.23 -34.06,-28.87 -53.32,-46.64 -57.73,-53.32 -19.26,25.54 -31.1,53.47 -35.55,83.83 -4.02,30.35 -5.74,46.83 -5,49.37 7.03,57.77 30.7,87.89 71.09,90.51 39.93,2.62 62.86,1.83 68.79,-2.23 -47.73,-2.22 -77.5,-11.83 -89.33,-28.87 -11.88,-17.03 -16.84,-29.41 -15.04,-37.18 7.42,4.06 14.84,7.97 22.23,11.64 2.57,11.09 7.42,22.77 14.41,35 13.32,0.35 25.55,0.15 36.64,-0.55 2.23,3.32 31.45,16.25 87.7,38.83 55.89,22.54 126.36,36.64 211.44,42.19 -2.93,2.96 -40.16,3.51 -111.56,1.64 -71.76,-1.84 -158.52,-23.83 -260.28,-66.02 -25.89,-15.58 -38.86,-23.9 -38.86,-25 -6.99,-5.94 -11.1,-13.67 -12.19,-23.32 -4.45,-67.66 2.77,-117.62 21.64,-149.84 18.48,-32.54 29.41,-48.64 32.74,-48.24 23.35,21.44 47.57,36.05 72.73,43.82 25.16,7.78 38.83,11.45 41.05,11.1 -38.12,-21.1 -65.7,-40.9 -82.69,-59.42 11.84,-3.32 24.8,-22.54 38.87,-57.69 -7.03,20.35 -10.75,31.25 -11.1,32.73 5.55,15.9 13.48,28.71 23.83,38.28 10.35,9.3 16.29,13.87 17.77,13.87 -14.41,-24.41 -19.06,-52.89 -13.86,-85.43 5.15,-32.58 9.61,-53.32 13.32,-62.15 7.03,-12.61 15.15,-25.19 24.41,-37.77 -15.94,44.06 -21.48,88.08 -16.68,132.11 4.49,44.02 11.88,80.66 22.23,109.88" /><path
         id="path16"
         style="fill:#68c7de;fill-opacity:1;fill-rule:evenodd;stroke:none"
         d="m 1555.62,1559.69 c 4.42,-0.74 24.22,0.74 59.34,4.41 35.51,3.71 60.7,14.26 75.51,31.68 -5.55,0.31 -19.61,11.6 -42.19,33.79 -22.93,22.23 -20,52.58 8.87,91.05 -75.47,-26.99 -112.66,-59.76 -111.56,-98.24 0.74,-38.12 4.1,-59.02 10.03,-62.69" /><path
         id="path18"
         style="fill:#68c7de;fill-opacity:1;fill-rule:evenodd;stroke:none"
         d="m 1487.89,1949.26 c -8.91,10.78 -19.26,20.9 -31.09,30.54 -48.09,-53.63 -71.76,-103.59 -71.02,-149.84 0.74,-46.64 9.96,-84.18 27.74,-112.66 17.73,-28.86 27.93,-43.67 30.54,-44.41 23.28,18.13 43.99,30.16 62.11,36.09 18.52,5.9 28.17,8.68 28.91,8.32 -31.45,-25.93 -55.35,-49.96 -71.6,-72.14 8.47,-16.64 39.18,-45.16 92.14,-85.47 -23.74,21.09 -39.8,41.4 -48.32,61.05 -8.16,19.61 -11.83,30.12 -11.09,31.6 51.8,48.87 98.05,75.67 138.75,80.47 -28.48,17.39 -71.6,18.71 -129.3,3.91 -6.28,2.97 -15.89,21.09 -28.86,54.37 -12.97,33.32 7.93,62.54 62.69,87.74 -2.58,5.15 3.71,17.15 18.91,36.05 -35.59,-4.45 -77.7,-20.93 -126.56,-49.41 -2.62,5.55 16.05,33.51 56.05,83.79" /><path
         id="path20"
         style="fill:#68c7de;fill-opacity:1;fill-rule:evenodd;stroke:none"
         d="m 1235.35,2026.99 c 1.49,0.39 5,-2.61 10.55,-8.9 5.19,-5.9 3.32,-17.39 -5.55,-34.38 -4.8,-10.78 -5.55,-21.48 -2.23,-32.23 3.72,-10.7 5.94,-16.44 6.68,-17.18 15.94,15.54 32.74,27.18 50.47,34.96 -18.86,4.41 -26.44,16.83 -22.69,37.19 0.7,1.48 2.19,8.86 4.41,22.22 2.19,12.93 -0.39,22.93 -7.77,29.96 -15.55,-10.04 -26.84,-20.54 -33.87,-31.64" /><path
         id="path22"
         style="fill:#68c7de;fill-opacity:1;fill-rule:evenodd;stroke:none"
         d="m 1820.9,1326.02 c 75.82,-78.83 143.16,-123.4 201.99,-133.75 58.83,-9.97 89.92,-12.74 93.28,-8.32 9.22,14.41 19.03,28.32 29.38,41.6 -29.61,-2.58 -48.28,1.87 -56.06,13.32 -0.35,-0.35 -0.54,-0.55 -0.54,-0.55 -9.61,30 -22.97,56.6 -39.97,79.96 -54.41,16.25 -101.75,36.8 -142.07,61.56 0,0.39 -1.13,2.43 -3.36,6.1 -54.76,-33.28 -82.26,-53.28 -82.65,-59.92" /><path
         id="path24"
         style="fill:#68c7de;fill-opacity:1;fill-rule:evenodd;stroke:none"
         d="m 2279.34,1162.85 c -15.59,-9.26 -30.36,-18.67 -44.42,-28.32 l 44.42,28.32" /><path
         id="path26"
         style="fill:#f5eb14;fill-opacity:1;fill-rule:evenodd;stroke:none"
         d="m 1587.23,1215.04 c 1.87,2.93 22.77,8.87 62.73,17.73 39.57,8.52 86.56,2.58 140.98,-17.73 -4.85,2.93 -17.97,20.9 -39.42,53.79 -21.48,32.97 -23.51,63.32 -6.13,91.05 -3.67,0.74 -24.41,-9.61 -62.15,-31.09 -37.73,-21.45 -69.72,-59.38 -96.01,-113.75" /><path
         id="path28"
         style="fill:#68c7de;fill-opacity:1;fill-rule:evenodd;stroke:none"
         d="m 1893.05,1468.12 c -62.93,-21.87 -134.14,-56.24 -213.67,-103.24 4.06,-5.19 13.86,-12.22 29.37,-21.13 22.93,11.09 35.16,16.48 36.64,16.13 -7.03,-8.16 -10.94,-17.22 -11.64,-27.22 12.93,-5.16 28.87,-10.55 47.73,-16.1 38.83,40.74 77.35,68.64 115.47,83.83 -9.29,18.52 -10.58,41.06 -3.9,67.73" /><path
         id="path30"
         style="fill:#68c7de;fill-opacity:1;fill-rule:evenodd;stroke:none"
         d="m 2612.89,1385.39 c -0.39,-0.74 -12.81,-5.35 -37.19,-13.87 -24.8,-8.51 -59.41,-15.15 -103.82,-19.96 -1.1,-3.01 -14.38,-17.93 -39.93,-44.96 -25.93,-27.03 -58.12,-49.61 -96.56,-67.73 0,-0.35 0,-0.75 0,-1.1 1.49,-1.09 14.22,0.55 38.28,5 24.03,4.07 49.22,18.28 75.51,42.7 -3.01,2.62 9.37,10.19 37.15,22.77 27.38,12.58 86.01,13.71 175.94,3.36 -0.39,0 -4.26,-0.94 -11.65,-2.77 h 0.55 l 28.83,-2.23 c 1.88,2.62 0.23,14.22 -4.96,34.96 -5.59,21.1 -26.29,35.71 -62.15,43.83" /><path
         id="path32"
         style="fill:#68c7de;fill-opacity:1;fill-rule:evenodd;stroke:none"
         d="m 2234.92,1238.32 c -25.15,-49.96 -40.15,-87.5 -44.96,-112.66 12.23,-3.67 27.19,-0.74 44.96,8.87 0,4.85 12.38,35.94 37.15,93.24 -12.58,1.14 -24.96,4.65 -37.15,10.55" /><path
         id="path34"
         style="fill:#68c7de;fill-opacity:1;fill-rule:evenodd;stroke:none"
         d="m 2680,1306.6 68.87,-6.13 c -19.26,6.29 -42.19,8.36 -68.87,6.13" /><path
         id="path36"
         style="fill:#68c7de;fill-opacity:1;fill-rule:evenodd;stroke:none"
         d="m 1128.79,703.281 c 36.64,10.039 73.28,16.84 109.92,20.59 16.64,23.668 31.09,46.399 43.24,68.238 -85.04,-28.828 -129.29,-44.769 -132.61,-47.73 20.74,27.73 40.31,58.82 58.82,93.242 -24.41,-35.902 -45.5,-62.891 -63.24,-81.019 -17.77,-18.512 -27.03,-27.774 -27.77,-27.774 12.93,-15.508 16.83,-24.058 11.64,-25.547" /><path
         id="path38"
         style="fill:#68c7de;fill-opacity:1;fill-rule:evenodd;stroke:none"
         d="m 1240.9,707.191 c -55.51,-14.421 -100.78,-30.511 -135.98,-48.281 -35.15,-17.738 -59.57,-31.84 -73.28,-42.191 12.23,2.582 25,1.832 38.36,-2.231 12.89,-4.058 19.92,-6.636 21.05,-7.769 0,1.133 12.04,8.511 36.1,22.23 24.06,13.711 60.47,27.34 109.33,41.051 4.03,14.449 5.55,26.84 4.42,37.191" /><path
         id="path40"
         style="fill:#68c7de;fill-opacity:1;fill-rule:evenodd;stroke:none"
         d="m 1073.28,707.77 c 30,11.101 44.81,18.128 44.42,21.058 l -44.42,-21.058" /><path
         id="path42"
         style="fill:#68c7de;fill-opacity:1;fill-rule:evenodd;stroke:none"
         d="m 1224.26,826.52 c 29.61,7.39 58.08,13.871 85.47,19.421 25.93,63.278 39.02,112.649 39.41,148.161 0.39,35.158 -0.39,53.128 -2.23,53.868 12.93,57.69 32.35,95.23 58.29,112.65 25.54,17.04 39.76,24.81 42.69,23.33 18.52,17.03 36.64,33.47 54.41,49.37 20.36,34.02 59.03,76.41 116.02,127.07 56.95,50.35 135.39,90.66 235.31,121.02 49.61,22.22 87.31,35.35 113.21,39.41 -146.53,-19.96 -258.6,-55.7 -336.29,-107.11 -77.7,-51.05 -130.67,-99.53 -158.75,-145.39 -28.13,-45.55 -41.45,-69.96 -39.96,-73.28 -38.87,-5.94 -67.19,-16.64 -84.93,-32.19 -17.77,-15.55 -28.86,-29.76 -33.28,-42.73 -3.75,-11.1 -5.39,-17.03 -5,-17.78 -4.8,-31.05 -11.33,-60.31 -19.41,-87.69 5.9,14.45 8.83,22.03 8.83,22.77 -3.67,-60.311 -16.25,-110.08 -37.7,-149.299 -21.09,-39.57 -33.12,-60.109 -36.09,-61.601" /><path
         id="path44"
         style="fill:#173863;fill-opacity:1;fill-rule:evenodd;stroke:none"
         d="m 1449.02,1626.29 c 0.39,1.48 8.52,11.99 24.42,31.6 16.33,20 37.03,40 62.18,59.96 -1.13,0.35 -10.93,-2.42 -29.45,-8.32 -18.12,-6.29 -38.83,-18.32 -62.11,-36.05 -2.97,0.74 -13.71,16.4 -32.22,47.14 -18.13,30.32 -26.64,69.93 -25.51,118.79 1.48,48.83 30.55,101.18 87.11,157.04 56.25,55.89 157.61,109.53 304.18,160.93 -2.62,-0.31 -27.58,-7.93 -74.92,-22.73 -47,-14.42 -100.32,-33.09 -159.89,-56.02 -59.92,-22.61 -110.04,-46.68 -150.39,-72.18 -2.58,-2.23 -10.9,-26.25 -25,-72.15 -13.63,-45.51 -17.54,-97.66 -11.6,-156.53 5.9,-58.82 36.99,-109.33 93.2,-151.48" /><path
         id="path46"
         style="fill:#173863;fill-opacity:1;fill-rule:evenodd;stroke:none"
         d="m 1431.84,1865.47 c -2.23,4.45 13.67,29.26 47.73,74.41 33.67,45.47 97.7,85.78 192.03,120.94 -3.36,-0.7 -20.15,-11.25 -50.51,-31.64 -29.96,-20.66 -53.12,-48.09 -69.37,-82.11 1.83,2.19 16.8,5.16 44.96,8.87 28.09,4.1 57.89,-4.61 89.37,-26.1 4.81,1.49 31.61,-1.09 80.47,-7.77 48.83,-6.68 90.43,-25.51 124.85,-56.6 -0.71,2.97 33.47,19.8 102.69,50.51 69.53,30.7 178.52,59.22 326.88,85.47 -4.06,0 -37.39,-8.33 -99.89,-25 -62.18,-17 -128.39,-43.09 -198.71,-78.21 -69.92,-34.8 -118.59,-79.37 -145.97,-133.75 -1.1,0.31 -5.71,4.96 -13.87,13.87 -8.48,8.87 -14.61,19.02 -18.28,30.51 4.41,5.54 2.19,21.64 -6.68,48.28 -8.52,26.64 -50.7,30.9 -126.52,12.77 0,2.23 -10.04,10.35 -30,24.42 -20.36,14.06 -51.06,21.64 -92.11,22.77 -41.45,1.48 -93.83,-15.74 -157.07,-51.64" /><path
         id="path48"
         style="fill:#173863;fill-opacity:1;fill-rule:evenodd;stroke:none"
         d="m 1496.21,1652.93 c -0.74,-1.48 3.17,-12.23 11.68,-32.19 8.13,-19.65 23.99,-39.96 47.73,-61.05 -2.26,1.48 -5.78,13.86 -10.58,37.15 -4.81,23.32 3.16,48.47 23.87,75.5 21.09,27 68.82,47 143.2,59.93 -2.23,3.71 -24.81,4.45 -67.7,2.26 -42.57,-2.26 -91.95,-29.45 -148.2,-81.6" /><path
         id="path50"
         style="fill:#68c7de;fill-opacity:1;fill-rule:evenodd;stroke:none"
         d="m 1925.2,1782.23 c -0.75,2.57 15.74,16.64 49.45,42.18 33.63,25.51 88.24,47.89 163.71,67.15 -4.81,-2.22 -27.58,-17.03 -68.28,-44.41 -40.31,-27.74 -69.57,-55.31 -87.7,-82.66 2.62,-1.87 16.1,-19.84 40.51,-53.87 24.41,-34.02 46.25,-73.78 65.51,-119.33 l 140.43,-46.06 c -4.45,2.97 -29.26,2.97 -74.38,0 l 80.47,-41.05 -75.47,18.87 c 0,1.09 -7.61,8.16 -22.77,21.09 -15.2,12.93 -37.38,24.96 -66.6,36.06 0.39,2.22 -7.03,20.74 -22.23,55.5 -15.15,34.42 -38.83,71.06 -71.01,109.92 5.89,-5.93 13.9,-29.45 23.86,-70.5 -0.74,2.58 -8.16,16.64 -22.22,42.18 -13.68,25.9 -31.41,47.5 -53.28,64.93" /><path
         id="path52"
         style="fill:#173863;fill-opacity:1;fill-rule:evenodd;stroke:none"
         d="m 1956.88,1685.08 c 1.09,0 12.53,-9.96 34.41,-29.96 21.44,-20.32 45.47,-51.76 72.15,-94.34 1.48,-0.74 17.73,-9.41 48.83,-26.05 31.09,-17.07 67.5,-37.23 109.33,-60.55 -1.83,0.74 -11.64,4.06 -29.41,10.04 -17.74,5.86 -33.13,10.12 -46.06,12.73 1.45,-0.74 9.07,-6.48 22.74,-17.22 13.67,-10.71 24.61,-21.25 32.77,-31.61 -1.48,1.49 -12.58,7.93 -33.32,19.42 -21.13,11.44 -44.22,20.16 -69.37,26.05 6.28,-5.15 9.41,-20.31 9.41,-45.47 0.39,1.1 -2.58,9.61 -8.87,25.55 -6.25,15.51 -18.32,30.86 -36.05,46.06 0,2.57 -8.91,21.44 -26.68,56.6 -18.13,35.12 -44.73,71.4 -79.88,108.75" /><path
         id="path54"
         style="fill:#f5eb14;fill-opacity:1;fill-rule:evenodd;stroke:none"
         d="m 1539.49,1813.28 c 2.58,3.75 20.35,12.58 53.28,26.68 32.97,14.42 66.41,10.9 100.47,-10.58 1.49,1.52 13.71,2.42 36.64,2.77 22.93,0.39 48.99,-9.57 78.24,-29.96 1.49,2.61 -4.06,12.22 -16.64,28.9 -12.96,16.64 -42.34,24.22 -88.28,22.74 -1.09,4.45 -16.99,10 -47.69,16.68 -30.35,6.25 -69.03,-12.81 -116.02,-57.23" /><path
         id="path56"
         style="fill:#173863;fill-opacity:1;fill-rule:evenodd;stroke:none"
         d="m 2009.57,1524.69 c -3.32,2.97 -41.6,2.22 -114.88,-2.19 -73.24,-4.84 -160.94,-29.61 -263.09,-74.38 -102.5,-45.11 -199.22,-126.91 -290.23,-245.31 -2.19,0 -9.61,-8.32 -22.19,-25 -12.58,-16.64 -16.33,-41.79 -11.09,-75.47 -1.88,2.97 4.57,16.64 19.41,41.1 14.45,24.02 49.22,41.25 104.34,51.6 -1.84,3.32 12.38,29.06 42.73,77.15 30.35,48.12 87.34,98.4 170.94,150.97 83.63,52.15 205,86.02 364.06,101.53" /><path
         id="path58"
         style="fill:#f5eb14;fill-opacity:1;fill-rule:evenodd;stroke:none"
         d="m 1329.14,890.352 c 0.74,3.668 37.03,20.738 108.79,51.019 72.15,30.348 174.1,51.09 305.82,62.179 -0.39,1.88 -30.7,2.62 -91.02,2.23 -59.96,-0.74 -145.97,-14.061 -258.08,-39.96 1.83,1.09 9.61,14.258 23.28,39.38 13.32,24.8 20.9,54.25 22.77,88.28 1.14,2.57 25.9,15.35 74.38,38.28 48.87,22.58 114.49,39.41 197.03,50.54 -1.84,2.19 -32.19,1.65 -91.02,-1.71 -58.47,-3.68 -133.39,-22.93 -224.76,-57.7 3.32,-1.48 4.41,-23.87 3.32,-67.15 -1.13,-43.28 -24.61,-98.439 -70.51,-165.388" /><path
         id="path60"
         style="fill:#173863;fill-opacity:1;fill-rule:evenodd;stroke:none"
         d="m 1018.91,606.719 c 0.39,4.101 31.25,22.383 92.69,54.961 61.41,32.539 151.33,54.57 269.69,66.019 -3.28,1.129 -31.25,1.129 -83.75,0 -52.54,-0.75 -108.79,-8.828 -168.75,-24.418 5.19,1.489 1.29,10.039 -11.64,25.547 0.74,-2.93 -13.13,-9.808 -41.6,-20.547 -28.52,-11.09 -75.32,-9.41 -140.472,5.039 -1.797,0.352 -6.289,-3.011 -13.277,-10.039 -7.422,-6.601 -5,-18.441 7.179,-35.511 0,-1.442 7.821,-9.45 23.321,-23.821 15.508,-14.461 37.738,-26.84 66.609,-37.23" /><path
         id="path62"
         style="fill:#f8971c;fill-opacity:1;fill-rule:evenodd;stroke:none"
         d="m 1091.05,606.719 c 0,4.453 30.94,20 92.7,46.64 62.15,26.993 155.94,39.411 281.37,37.192 -2.23,0 -20.51,-4.071 -54.92,-12.231 -34.46,-8.16 -72.54,-20.16 -114.34,-36.05 -42.19,-15.942 -75.51,-35.942 -99.92,-59.93 0.39,-1.481 -7.58,-2.219 -23.83,-2.219 -16.68,0.348 -43.67,9.219 -81.06,26.598" /><path
         id="path64"
         style="fill:#173863;fill-opacity:1;fill-rule:evenodd;stroke:none"
         d="m 1149.88,744.379 c 6.29,5.543 71.21,27.73 194.85,66.601 123.55,38.469 269.14,60.5 436.75,66.051 -1.09,3.321 -49.8,5.899 -145.97,7.77 -96.21,1.84 -233.24,-17.61 -411.25,-58.281 2.97,1.492 15,21.8 36.09,61.058 21.45,39.184 34.03,88.981 37.7,149.302 -1.06,-5.55 -15.9,-41.45 -44.38,-107.661 -28.51,-65.899 -63.08,-127.5 -103.79,-184.84" /><path
         id="path66"
         style="fill:#173863;fill-opacity:1;fill-rule:evenodd;stroke:none"
         d="m 1781.48,1317.15 c 1.14,-6.68 36.8,-37.74 107.11,-93.24 70.32,-55.16 169.07,-95.47 296.37,-121.02 -4.45,5.2 10.94,48.13 46.06,128.79 35.15,80.62 115.46,165.94 240.86,255.86 -5.9,1.09 -47.35,-22.42 -124.3,-70.51 -77.31,-47.73 -154.46,-125.43 -231.41,-233.08 -3.36,-4.42 -34.45,-1.49 -93.28,8.86 -58.83,10 -126.17,54.38 -201.99,133.21 0,4.41 20.55,20.74 61.6,48.82 41.45,28.17 102.27,42.78 182.58,43.83 -3.67,4.85 -34.61,5.78 -92.7,2.78 -58.43,-2.54 -122.11,-37.31 -190.9,-104.3" /><path
         id="path68"
         style="fill:#f8971c;fill-opacity:1;fill-rule:evenodd;stroke:none"
         d="m 1481.21,1198.95 c -0.74,3.28 16.49,28.67 51.64,76.01 35.12,46.99 91.56,94.88 169.26,143.71 77.69,48.87 180.23,77.54 307.46,86.06 -2.93,0.39 -34.41,-9.07 -94.34,-28.28 -59.92,-19.65 -130.58,-51.84 -212.03,-96.61 -80.97,-45.15 -155,-105.46 -221.99,-180.89" /><path
         id="path70"
         style="fill:#f8971c;fill-opacity:1;fill-rule:evenodd;stroke:none"
         d="m 1997.93,1377.62 c 2.58,-1.1 15,-14.96 37.19,-41.6 22.54,-26.29 40.5,-58.87 53.83,-97.7 0.74,2.23 14.06,20.55 39.96,54.96 26.29,34.38 61.21,71.21 104.88,110.43 43.67,39.22 92.3,67.19 146.01,83.83 -4.84,0.35 -38.51,-12.07 -101.05,-37.19 -62.5,-25.55 -125.78,-66.99 -189.8,-124.33 -5.9,4.1 -36.25,21.25 -91.02,51.6" /><path
         id="path72"
         style="fill:#173863;fill-opacity:1;fill-rule:evenodd;stroke:none"
         d="m 2234.92,1134.53 c 0,2.23 7.38,22.23 22.19,59.96 14.8,38.09 36.99,80.47 66.6,127.07 29.96,46.99 67.34,85.28 112.11,114.89 -2.97,-1.45 -16.84,-20.9 -41.64,-58.25 -25.16,-36.99 -44.73,-83.67 -58.79,-139.88 1.49,-1.48 14.22,0 38.28,4.45 24.03,4.42 49.22,18.68 75.51,42.7 -3.01,3.01 9.37,10.78 37.15,23.36 27.38,12.54 86.01,13.47 175.94,2.77 -2.19,0 -27.39,-7.03 -75.47,-21.09 -48.09,-13.71 -105.08,-33.87 -170.94,-60.51 -65.51,-26.25 -125.82,-58.09 -180.94,-95.47" /><path
         id="path74"
         style="fill:#173863;fill-opacity:1;fill-rule:evenodd;stroke:none"
         d="m 2680,1307.15 c 1.88,2.58 0,14.22 -5.55,34.96 -5.15,20.74 -25.7,35.35 -61.56,43.83 -5.55,4.8 10.35,24.41 47.7,58.86 37.03,34.77 128.2,54.73 273.63,59.93 -5.94,0.7 -37.19,-5.9 -93.79,-19.96 -56.6,-13.72 -102.89,-39.97 -138.75,-78.83 0,-1.14 5.74,-7.19 17.19,-18.28 11.48,-11.14 27.58,-19.46 48.28,-25 2.97,1.48 16.48,-4.65 40.51,-18.32 24.06,-13.72 40.54,-43.68 49.41,-89.89 2.97,1.06 29.81,6.06 80.51,14.96 50.27,8.87 107.65,14.26 172.03,16.06 -2.27,0 -20.74,-2.54 -55.51,-7.74 -35.15,-4.8 -73.44,-12.57 -114.88,-23.28 -41.45,-10.39 -73.09,-23.51 -94.92,-39.41 0.74,4.8 -11.1,21.64 -35.51,50.51 -24.41,28.83 -67.34,42.69 -128.79,41.6" /><path
         id="path76"
         style="fill:#f8971c;fill-opacity:1;fill-rule:evenodd;stroke:none"
         d="m 1599.45,1969.26 c 1.8,0.74 11.25,0.74 28.32,0 16.64,-1.14 30.32,-6.84 41.06,-17.23 -1.13,6.29 72.5,28.17 220.86,65.55 148.4,36.95 376.48,53.04 684.33,48.24 -6.29,2.23 -68.28,7.77 -185.9,16.64 -117.3,8.91 -251.44,7.42 -402.38,-4.41 -150.97,-12.23 -279.76,-48.48 -386.29,-108.79" /><path
         id="path78"
         style="fill:#f8971c;fill-opacity:1;fill-rule:evenodd;stroke:none"
         d="m 2572.89,1418.16 c -1.84,2.54 22.97,19.61 74.38,51.02 51.44,31.48 141.17,62.19 269.18,92.15 128.04,29.61 305.97,43.12 533.94,40.51 -6.68,3 -68.67,7.57 -185.94,13.86 -117.3,6.29 -250.5,-3.67 -399.61,-29.96 -149.1,-26.29 -274.37,-86.91 -375.74,-182.03 1.49,1.09 11.1,4.45 28.87,10 18.12,5.55 36.44,6.99 54.92,4.45" /><path
         id="path80"
         style="fill:#f8971c;fill-opacity:1;fill-rule:evenodd;stroke:none"
         d="m 1481.21,1061.29 c 0.39,4.06 -5,-17.23 -16.09,-63.829 -1.49,2.579 41.79,11.489 129.88,26.639 88.05,15.16 230.86,21.64 428.48,19.45 197.93,-1.87 460.47,-27.22 787.5,-76.05 -5.16,2.578 -75.47,16.801 -210.9,42.73 -135.39,25.9 -304.1,47.19 -506.13,63.83 -202.39,16.64 -406.65,12.35 -612.74,-12.77" /><path
         id="path82"
         style="fill:#f8971c;fill-opacity:1;fill-rule:evenodd;stroke:none"
         d="m 1381.29,791.52 -21.06,-47.141 c 3.32,2.223 56.8,12.922 160.39,32.18 103.64,19.261 237.9,33.48 402.93,42.742 165.4,9.25 342.23,0 530.59,-27.781 -4.06,2.269 -59.57,11.839 -166.48,28.91 -107.31,17.031 -242.58,26.601 -405.71,28.871 -162.85,2.539 -329.68,-16.641 -500.66,-57.781" /><path
         id="path84"
         style="fill:#eb2123;fill-opacity:1;fill-rule:evenodd;stroke:none"
         d="m 1285.31,1595.2 c 0.74,-2.93 27.58,-13.13 80.47,-30.51 52.89,-17.39 128.79,-23.32 227.54,-17.78 98.79,5.2 217.19,40.12 355.2,104.89 l 24.41,-35.51 c -5.16,-4.84 -52.54,-27.58 -142.07,-68.28 -89.14,-40.71 -188.48,-70.67 -298.01,-89.92 -109.53,-19.57 -197.03,0.19 -262.54,59.41 l 15,77.7" /><path
         id="path86"
         style="fill:#eb2123;fill-opacity:1;fill-rule:evenodd;stroke:none"
         d="m 2056.76,1698.44 23.32,-32.78 c 4.8,4.07 57.89,32.23 159.26,84.38 101.05,52.15 220.7,103.24 359.1,153.2 138.36,49.92 266.01,73.95 382.97,72.15 -0.75,2.58 -37.54,3.52 -110.43,2.77 -72.89,-0.74 -178.17,-20.39 -315.86,-58.86 -137.62,-38.09 -303.71,-111.72 -498.36,-220.86" /><path
         id="path88"
         style="fill:#68c7de;fill-opacity:1;fill-rule:evenodd;stroke:none"
         d="m 1346.37,2051.95 c -1.14,-1.09 -1.49,-6.87 -1.14,-17.22 0.39,-10.71 9.07,-20.16 26.1,-28.28 -1.88,2.22 5.94,17.03 23.32,44.41 16.99,27.03 53.98,51.99 111.01,74.92 -3,0 -22.18,-5.94 -57.77,-17.77 -35.51,-11.84 -69.37,-30.51 -101.52,-56.06" /><path
         id="path90"
         style="fill:#f5eb14;fill-opacity:1;fill-rule:evenodd;stroke:none"
         d="m 2088.95,1651.8 c 4.45,-6.64 12.61,-21.49 24.45,-44.42 1.8,1.14 23.44,-5.15 64.88,-18.86 41.49,-13.32 93.05,-39.42 154.84,-78.25 4.81,1.84 31.84,3.52 81.06,5 49.22,1.49 91.76,-7.77 127.66,-27.73 -1.1,5.16 28.28,27.73 88.2,67.69 60,39.57 157.11,66.02 291.41,79.38 -4.85,-0.39 -41.8,-0.2 -111.02,0.51 -68.83,0.74 -140.39,4.1 -214.77,10.04 -74.33,5.54 -122.11,15.5 -143.2,29.96 -20.7,14.06 14.61,34.61 106.02,61.6 -4.42,-1.13 -27.19,-2.93 -68.25,-5.55 -41.44,-2.62 -75.31,-0.39 -101.6,6.64 -26.25,7.42 -19.41,25.71 20.55,54.96 -2.58,0.35 -34.41,-10.35 -95.47,-32.18 -61.41,-21.84 -136.33,-58.13 -224.76,-108.79" /><path
         id="path92"
         style="fill:#f5eb14;fill-opacity:1;fill-rule:evenodd;stroke:none"
         d="m 1690.47,1945.43 c 5.55,1.45 34.02,-0.23 85.47,-5.04 51.05,-4.8 90.97,-21.09 119.88,-48.83 -1.87,4.42 15.9,24.42 53.28,59.92 36.99,35.9 104.34,60.71 201.99,74.42 -5.54,1.09 -54.76,-3.52 -147.61,-13.87 -92.89,-10.39 -197.19,-32.58 -313.01,-66.6" /><path
         id="path94"
         style="fill:#f5eb14;fill-opacity:1;fill-rule:evenodd;stroke:none"
         d="m 2056.76,1730.04 c -1.14,1.13 -7.19,6.29 -18.28,15.58 -11.14,9.58 -20.75,15.9 -28.91,18.87 1.13,3.32 20.9,19.42 59.41,48.24 38.13,28.48 87.11,50.71 147.07,66.61 -3.32,-1.1 -17.77,-9.07 -43.32,-23.87 -25.85,-14.42 -42.93,-28.63 -51.01,-42.74 -8.17,-14.06 12.34,-20.66 61.56,-19.96 -4.8,-1.48 -24.41,-9.61 -58.79,-24.45 -34.8,-14.77 -57.38,-27.5 -67.73,-38.28" /><path
         id="path96"
         style="fill:#f5eb14;fill-opacity:1;fill-rule:evenodd;stroke:none"
         d="m 1555.04,2109.65 c 1.84,1.52 18.12,8.32 48.83,20.55 30.35,12.57 64.37,20.58 102.11,23.86 -2.19,0 -14.77,0.55 -37.74,1.68 -22.93,1.1 -43.24,3.52 -61.01,7.19 -18.13,3.36 -20.59,8.36 -7.23,15.04 -2.23,1.44 -10.2,-0.98 -23.87,-7.27 -14.06,-6.29 -21.09,-26.6 -21.09,-61.05" /><path
         id="path98"
         style="fill:#f5eb14;fill-opacity:1;fill-rule:evenodd;stroke:none"
         d="m 2760.47,1416.48 c 6.68,1.45 30,-5.15 69.96,-20 40.31,-15.11 57.34,-48.98 51.05,-101.56 0.36,2.62 27.39,9.06 81.06,19.46 53.63,10.7 132.46,10.7 236.41,0 -3.33,0.39 -25,6.83 -64.93,19.41 -39.96,12.58 -78.43,27.93 -115.47,46.05 -37.34,18.52 -53.24,36.8 -47.69,54.96 5.16,18.13 51.6,33.09 139.26,44.93 -4.81,3.75 -43.24,5.39 -115.39,5.04 -72.15,0 -150.28,-22.78 -234.26,-68.29" /><path
         id="path100"
         style="fill:#68c7de;fill-opacity:1;fill-rule:evenodd;stroke:none"
         d="m 1924.69,1665.66 c -2.27,0.75 -9.61,7.97 -22.19,21.68 -12.23,13.68 -15.59,30.12 -10.04,49.38 -1.09,-0.74 -7.03,1.48 -17.73,6.64 -11.1,4.8 -21.1,15.39 -30,31.64 -0.75,-2.58 -13.87,-6.45 -39.38,-11.64 -25.55,-5.16 -58.83,4.61 -99.88,29.41 0,-1.83 -7.07,-4.06 -21.13,-6.68 -14.03,-2.93 -34.93,3.17 -62.7,18.32 -3.32,-2.22 -2.19,-10.35 3.36,-24.41 5.9,-14.06 37.15,-21.45 93.79,-22.19 0.7,-1.48 12.15,-6.64 34.37,-15.54 21.84,-9.26 49.96,-11.65 84.38,-7.23 -1.13,-1.09 3.16,-10.55 12.73,-28.28 9.3,-17.78 29.26,-36.06 59.96,-54.96 l 14.46,13.86" /><path
         id="path102"
         style="fill:#173863;fill-opacity:1;fill-rule:evenodd;stroke:none"
         d="m 1192.07,2082.46 c -3.32,-1.8 -5.55,-25.7 -6.68,-71.56 -1.09,-45.9 19.61,-102.11 62.19,-168.71 -0.74,1.05 7.19,11.64 23.87,31.6 16.64,20 46.25,41.83 88.78,65.51 -2.22,0.35 -15.89,-3.32 -41.05,-11.1 -25.16,-7.77 -49.38,-22.38 -72.73,-43.82 -3.33,-0.4 -14.26,15.5 -32.74,47.69 -18.87,32.54 -26.09,82.73 -21.64,150.39" /><path
         id="path104"
         style="fill:#173863;fill-opacity:1;fill-rule:evenodd;stroke:none"
         d="m 1341.95,1985.35 c -1.87,0.39 -13.36,-3.12 -34.45,-10.55 -21.05,-7.77 -41.8,-21.28 -62.19,-40.5 -1.05,0.74 -3.28,6.48 -6.6,17.18 -3.75,10.75 -2.97,21.45 2.19,32.23 8.9,16.64 10.55,28.09 5,34.38 -5.55,6.29 -9.06,9.29 -10.55,8.9 31.45,38.48 121.72,81.92 270.82,130.39 -3.28,0.74 -31.99,-5.54 -86.01,-18.83 -53.99,-13.32 -113.21,-36.83 -177.62,-70.5 -1.8,7.77 3.16,20.15 15.04,37.18 11.83,17.04 41.6,26.65 89.33,28.87 -5.93,4.06 -28.86,4.85 -68.79,2.23 -40.39,-2.62 -64.06,-32.58 -71.09,-89.92 -0.74,-2.97 0.98,-19.61 5,-49.96 4.45,-30.36 16.29,-58.29 35.55,-83.83 1.48,2.26 12.19,12.97 32.19,32.22 20,19.26 40.7,32.74 62.18,40.51" /><path
         id="path106"
         style="fill:#173863;fill-opacity:1;fill-rule:evenodd;stroke:none"
         d="m 1305.31,1854.92 c 0.35,-1.83 4.22,-13.87 11.64,-36.05 7.78,-21.84 17.58,-42.23 29.42,-61.06 -2.23,3.32 -6.49,22.35 -12.78,57.19 -6.25,34.77 -2.03,65.47 12.78,92.07 -1.14,-0.35 -6.88,-5.16 -17.23,-14.37 -10.7,-9.3 -18.67,-21.88 -23.83,-37.78" /><path
         id="path108"
         style="fill:#002a46;fill-opacity:1;fill-rule:nonzero;stroke:none"
         d="m 2150.31,2339.61 c 0,8.63 2.54,15.82 7.66,21.56 5.19,5.82 12.89,8.75 23.12,8.75 10.32,0 18.13,-2.93 23.44,-8.75 5.39,-5.74 8.13,-12.93 8.13,-21.56 0,-8.36 -2.74,-15.31 -8.13,-20.94 -5.31,-5.51 -13.12,-8.28 -23.44,-8.28 -10.23,0 -17.93,2.77 -23.12,8.28 -5.12,5.63 -7.66,12.58 -7.66,20.94 z" /><path
         id="path110"
         style="fill:#002a46;fill-opacity:1;fill-rule:nonzero;stroke:none"
         d="m 373.012,40.7383 c 0,-4.918 -0.903,-9.4492 -2.66,-13.5899 -1.68,-4.0586 -4.024,-7.6601 -7.032,-10.7773 -3.05,-3.0508 -6.64,-5.4297 -10.781,-7.19141 -4.18,-1.67969 -8.711,-2.5 -13.59,-2.5 H 95.0391 c -6.25,0 -13.0508,0.69922 -20.3086,2.1914 -7.1914,1.43751 -14.3008,3.75001 -21.25,6.86721 -7,3.1328 -13.711,7.1133 -20.1602,12.0312 -6.4805,5 -12.1914,10.9805 -17.1914,17.9688 C 11.2109,52.8086 7.30078,60.9805 4.41016,70.2695 1.48047,79.5313 0.0390625,90 0.0390625,101.68 v 183.121 c 0,6.25 0.6992185,12.969 2.1914075,20.16 1.44141,7.187 3.75,14.258 6.87109,21.25 3.12894,7.07 7.18754,13.789 12.18754,20.16 5.082,6.438 11.1328,12.109 18.1211,17.027 6.9609,5 15.039,8.942 24.2187,11.872 9.2617,3.011 19.7305,4.531 31.4102,4.531 H 369.879 V 312.148 H 95.0391 c -8.8672,0 -15.6289,-2.347 -20.3086,-7.027 C 70.0391,300.43 67.6992,293.48 67.6992,284.34 V 101.68 c 0,-8.7503 2.3399,-15.5511 7.0313,-20.3089 4.7578,-4.6914 11.5586,-7.0313 20.3086,-7.0313 H 305.512 V 159.18 h -180.16 v 68.121 h 213.597 c 4.879,0 9.41,-0.93 13.59,-2.813 4.141,-1.789 7.731,-4.218 10.781,-7.34 3.008,-3.128 5.352,-6.718 7.032,-10.777 1.757,-4.07 2.66,-8.441 2.66,-13.133 z M 739.18,194.801 c 0,-9.371 -1.68,-19.492 -5,-30.313 -3.36,-10.859 -8.711,-20.898 -16.09,-30.148 -7.309,-9.301 -16.879,-17.039 -28.75,-23.289 -11.879,-6.25 -26.371,-9.371 -43.442,-9.371 H 524.02 v 64.218 h 121.878 c 9.262,0 16.403,2.813 21.403,8.442 5,5.621 7.5,12.57 7.5,20.93 0,8.832 -2.813,15.781 -8.43,20.781 -5.633,5.078 -12.461,7.66 -20.473,7.66 H 524.02 c -9.29,0 -16.399,-2.891 -21.399,-8.59 -5,-5.633 -7.5,-12.621 -7.5,-20.941 V 99.8008 c 0,-8.9805 2.809,-16.0117 8.43,-21.0899 5.629,-5 12.578,-7.5 20.937,-7.5 h 121.41 V 6.67969 H 524.02 c -9.372,0 -19.489,1.60156 -30.309,4.83981 -10.859,3.3203 -20.941,8.6797 -30.313,16.1016 -9.296,7.3789 -17.027,17.0273 -23.277,28.8984 -6.172,11.8789 -9.223,26.2891 -9.223,43.2813 v 95.0002 c 0,9.379 1.602,19.461 4.84,30.32 3.321,10.82 8.641,20.859 15.942,30.149 7.379,9.261 17.031,17.031 28.91,23.281 11.871,6.25 26.32,9.379 43.43,9.379 h 121.878 c 9.372,0 19.454,-1.68 30.313,-5 10.937,-3.239 21.019,-8.551 30.309,-15.942 9.261,-7.418 17.031,-17.027 23.281,-28.898 6.25,-11.879 9.379,-26.328 9.379,-43.289 z" /><path
         id="path112"
         style="fill:#002a46;fill-opacity:1;fill-rule:nonzero;stroke:none"
         d="M 1040.9,220.27 H 922.77 V 6.67969 H 854.34 V 220.27 h -87.969 v 67.66 h 87.969 v 91.871 h 68.43 V 287.93 h 118.13 z" /><path
         id="path114"
         style="fill:#002a46;fill-opacity:1;fill-rule:nonzero;stroke:none"
         d="M 1629.14,379.801 1452.42,19.9609 c -2.73,-5.5507 -6.83,-9.9609 -12.34,-13.28121 -5.43,-3.44141 -11.49,-5.16016 -18.13,-5.16016 -6.36,0 -12.3,1.71875 -17.81,5.16016 -5.43,3.32031 -9.61,7.73051 -12.5,13.28121 L 1215.23,379.801 h 75.63 l 131.09,-268.75 131.72,268.75 z" /><path
         id="path116"
         style="fill:#002a46;fill-opacity:1;fill-rule:nonzero;stroke:none"
         d="m 1919.38,99.8008 c 0,-9.3711 -1.68,-19.4922 -5,-30.3125 -3.25,-10.8594 -8.56,-20.8985 -15.94,-30.1485 -7.31,-9.3007 -16.96,-17.039 -28.91,-23.289 -11.87,-6.25002 -26.33,-9.37111 -43.28,-9.37111 h -122.03 c -9.38,0 -19.49,1.60156 -30.31,4.83981 -10.86,3.3203 -20.9,8.6797 -30.16,16.1016 -9.3,7.3789 -17.03,17.0273 -23.28,28.8984 -6.25,11.8789 -9.38,26.2891 -9.38,43.2813 0,9.3792 1.64,19.5392 5,30.4692 3.32,10.941 8.64,21.019 15.94,30.32 7.38,9.25 17.03,17.031 28.91,23.281 11.87,6.25 26.29,9.367 43.28,9.367 h 122.03 v -64.527 h -122.03 c -9.18,0 -16.25,-2.813 -21.25,-8.441 -5,-5.622 -7.5,-12.61 -7.5,-20.9302 0,-8.871 2.85,-15.789 8.59,-20.789 5.82,-4.9219 12.74,-7.3399 20.78,-7.3399 h 121.41 c 9.14,0 16.25,2.7383 21.25,8.2774 5.08,5.5117 7.66,12.4219 7.66,20.7817 v 94.531 c 0,8.828 -2.78,15.859 -8.28,21.097 -5.43,5.192 -12.31,7.813 -20.63,7.813 h -148.59 v 64.219 h 148.59 c 9.37,0 19.45,-1.68 30.31,-5 10.82,-3.239 20.86,-8.551 30.16,-15.942 9.26,-7.418 17.03,-17.027 23.28,-28.898 6.25,-11.879 9.38,-26.328 9.38,-43.289 z" /><path
         id="path118"
         style="fill:#002a46;fill-opacity:1;fill-rule:nonzero;stroke:none"
         d="m 2250.04,6.67969 h -183.28 c -9.38,0 -19.65,1.60156 -30.78,4.83981 -11.06,3.3203 -21.33,8.75 -30.78,16.25 -9.5,7.5821 -17.43,17.4297 -23.75,29.5313 -6.25,12.0781 -9.38,26.8789 -9.38,44.3792 v 91.558 c 0,6.332 0.7,13.051 2.19,20.16 1.44,7.192 3.75,14.262 6.87,21.25 3.13,7.071 7.11,13.793 12.03,20.153 5,6.449 10.98,12.078 17.97,16.879 7.07,4.879 15.2,8.789 24.38,11.718 9.14,3.012 19.57,4.532 31.25,4.532 h 183.28 v -67.66 h -183.28 c -8.87,0 -15.63,-2.301 -20.31,-6.872 -4.61,-4.488 -6.88,-11.367 -6.88,-20.628 v -91.09 c 0,-8.8714 2.34,-15.6292 7.03,-20.3089 4.69,-4.6914 11.56,-7.0313 20.63,-7.0313 h 182.81 z" /><path
         id="path120"
         style="fill:#002a46;fill-opacity:1;fill-rule:nonzero;stroke:none"
         d="m 2576.8,6.67969 h -183.28 c -9.38,0 -19.65,1.60156 -30.79,4.83981 -11.05,3.3203 -21.32,8.75 -30.78,16.25 -9.49,7.5821 -17.42,17.4297 -23.75,29.5313 -6.25,12.0781 -9.37,26.8789 -9.37,44.3792 v 91.558 c 0,6.332 0.7,13.051 2.19,20.16 1.44,7.192 3.75,14.262 6.87,21.25 3.13,7.071 7.11,13.793 12.03,20.153 5,6.449 10.98,12.078 17.97,16.879 7.07,4.879 15.2,8.789 24.38,11.718 9.14,3.012 19.57,4.532 31.25,4.532 h 183.28 v -67.66 h -183.28 c -8.87,0 -15.63,-2.301 -20.32,-6.872 -4.61,-4.488 -6.87,-11.367 -6.87,-20.628 v -91.09 c 0,-8.8714 2.34,-15.6292 7.03,-20.3089 4.69,-4.6914 11.56,-7.0313 20.62,-7.0313 h 182.82 z" /><path
         id="path122"
         style="fill:#002a46;fill-opacity:1;fill-rule:nonzero;stroke:none"
         d="m 2702.03,345.738 h -67.6523 v 61.1016 h 67.6523 z m 0,-339.05831 h -67.6523 v 281.25 h 67.6523 z" /><path
         id="path124"
         style="fill:#002a46;fill-opacity:1;fill-rule:nonzero;stroke:none"
         d="m 3078.2,6.67969 h -67.65 V 162.77 c 0,8.832 -1.53,16.761 -4.53,23.75 -3.05,7.07 -7.15,13.128 -12.35,18.128 -5.23,5 -11.37,8.832 -18.44,11.563 -6.99,2.699 -14.53,4.059 -22.65,4.059 H 2834.14 V 6.67969 h -67.66 V 254.34 c 0,4.68 0.82,9.058 2.5,13.121 1.76,4.059 4.22,7.578 7.35,10.629 3.12,3.121 6.76,5.5 10.94,7.18 4.14,1.761 8.59,2.66 13.28,2.66 h 152.5 c 8.51,0 17.5,-1.02 26.87,-2.969 9.46,-1.871 18.83,-4.961 28.13,-9.223 9.25,-4.179 18.12,-9.527 26.56,-16.09 8.44,-6.488 15.86,-14.339 22.34,-23.597 6.57,-9.289 11.72,-20 15.47,-32.18 3.83,-12.109 5.78,-25.781 5.78,-41.101 z" /><path
         id="path126"
         style="fill:#002a46;fill-opacity:1;fill-rule:nonzero;stroke:none"
         d="m 3428.28,99.8008 c 0,-9.3711 -1.68,-19.4922 -5,-30.3125 -3.24,-10.8594 -8.55,-20.8985 -15.94,-30.1485 -7.3,-9.3007 -16.95,-17.039 -28.9,-23.289 -11.88,-6.25002 -26.33,-9.37111 -43.28,-9.37111 h -122.04 c -9.37,0 -19.49,1.60156 -30.31,4.83981 -10.86,3.3203 -20.9,8.6797 -30.15,16.1016 -9.3,7.3789 -17.04,17.0273 -23.28,28.8984 -6.26,11.8789 -9.38,26.2891 -9.38,43.2813 0,9.3792 1.64,19.5392 5,30.4692 3.32,10.941 8.63,21.019 15.94,30.32 7.38,9.25 17.03,17.031 28.9,23.281 11.88,6.25 26.29,9.367 43.28,9.367 h 122.04 v -64.527 h -122.04 c -9.17,0 -16.24,-2.813 -21.24,-8.441 -5,-5.622 -7.5,-12.61 -7.5,-20.9302 0,-8.871 2.85,-15.789 8.59,-20.789 5.82,-4.9219 12.73,-7.3399 20.78,-7.3399 h 121.41 c 9.14,0 16.25,2.7383 21.25,8.2774 5.07,5.5117 7.65,12.4219 7.65,20.7817 v 94.531 c 0,8.828 -2.77,15.859 -8.28,21.097 -5.43,5.192 -12.3,7.813 -20.62,7.813 h -148.6 v 64.219 h 148.6 c 9.37,0 19.45,-1.68 30.31,-5 10.82,-3.239 20.86,-8.551 30.15,-15.942 9.26,-7.418 17.04,-17.027 23.29,-28.898 6.25,-11.879 9.37,-26.328 9.37,-43.289 z" /><path
         id="path128"
         style="fill:#002a46;fill-opacity:1;fill-rule:nonzero;stroke:none"
         d="M 3741.33,220.27 H 3623.2 V 6.67969 h -68.43 V 220.27 h -87.97 v 67.66 h 87.97 v 91.871 h 68.43 V 287.93 h 118.13 z" /><path
         id="path130"
         style="fill:#002a46;fill-opacity:1;fill-rule:nonzero;stroke:none"
         d="m 4087.89,194.801 c 0,-9.371 -1.68,-19.492 -5,-30.313 -3.36,-10.859 -8.71,-20.898 -16.09,-30.148 -7.31,-9.301 -16.88,-17.039 -28.75,-23.289 -11.88,-6.25 -26.37,-9.371 -43.44,-9.371 h -121.88 v 64.218 h 121.88 c 9.26,0 16.41,2.813 21.41,8.442 5,5.621 7.5,12.57 7.5,20.93 0,8.832 -2.82,15.781 -8.44,20.781 -5.63,5.078 -12.46,7.66 -20.47,7.66 h -121.88 c -9.29,0 -16.4,-2.891 -21.4,-8.59 -5,-5.633 -7.5,-12.621 -7.5,-20.941 V 99.8008 c 0,-8.9805 2.81,-16.0117 8.44,-21.0899 5.62,-5 12.57,-7.5 20.93,-7.5 h 121.41 V 6.67969 h -121.88 c -9.37,0 -19.49,1.60156 -30.31,4.83981 -10.86,3.3203 -20.94,8.6797 -30.31,16.1016 -9.3,7.3789 -17.03,17.0273 -23.28,28.8984 -6.17,11.8789 -9.22,26.2891 -9.22,43.2813 v 95.0002 c 0,9.379 1.6,19.461 4.84,30.32 3.32,10.82 8.64,20.859 15.94,30.149 7.38,9.261 17.03,17.031 28.91,23.281 11.87,6.25 26.32,9.379 43.43,9.379 h 121.88 c 9.37,0 19.45,-1.68 30.31,-5 10.94,-3.239 21.02,-8.551 30.31,-15.942 9.26,-7.418 17.04,-17.027 23.29,-28.898 6.25,-11.879 9.37,-26.328 9.37,-43.289 z" /><path
         id="path132"
         style="fill:#002a46;fill-opacity:1;fill-rule:nonzero;stroke:none"
         d="m 4442.46,101.68 c 0,-11.68 -1.52,-22.1487 -4.53,-31.4105 -2.93,-9.289 -6.84,-17.4609 -11.72,-24.5312 -4.8,-6.9883 -10.43,-12.9688 -16.87,-17.9688 -6.37,-4.9179 -13.09,-8.8984 -20.16,-12.0312 -6.99,-3.1172 -14.06,-5.4297 -21.25,-6.86721 -7.19,-1.49218 -14.02,-2.1914 -20.47,-2.1914 h -122.03 c -11.56,0 -21.99,1.4414 -31.25,4.37111 -9.18,3.0078 -17.3,6.9609 -24.38,11.8789 -6.99,5 -12.96,10.6601 -17.96,17.0312 -4.93,6.4493 -8.91,13.1602 -12.04,20.1602 -3.12,7.0703 -5.42,14.2187 -6.87,21.3984 -1.48,7.1914 -2.19,13.9102 -2.19,20.1605 v 91.558 c 0,17.274 3.17,31.961 9.53,44.063 6.33,12.078 14.22,21.879 23.6,29.379 9.45,7.582 19.72,13.011 30.78,16.25 11.13,3.32 21.4,5 30.78,5 h 122.03 v -67.66 h -121.41 c -9.06,0 -15.93,-2.301 -20.62,-6.872 -4.69,-4.609 -7.03,-11.328 -7.03,-20.16 v -91.09 c 0,-9.1792 2.26,-16.0972 6.87,-20.7769 4.57,-4.6914 11.29,-7.0313 20.16,-7.0313 h 122.03 c 9.14,0 15.98,2.3399 20.47,7.0313 4.57,4.6797 6.87,11.4375 6.87,20.3089 v 305.16 h 67.66 z" /></g></g></svg>